<svg xmlns="http://www.w3.org/2000/svg" width="335" height="335" viewBox="0 0 335 335"><title>app-type-hobby-gray</title><g id="ready-for-export"><path d="M114.38,163.42V158h-6.72c-3.6,0-6.76-3.42-6.76-7.32v-.31a6.81,6.81,0,0,1,6.76-6.85h6.72v-9.24H68.56c-2.71,0-5.6,1.5-5.6,4.28v.3c0,2.78,2.9,4.66,5.6,4.66h16a7.22,7.22,0,0,1,7.13,6.93v.38A7.44,7.44,0,0,1,84.53,158H14.05c-2.31,0-4.76,1.38-4.76,3.93v.25a5.28,5.28,0,0,0,5.11,5H121Z" fill="none"/><path d="M102.9,150.37v.31c0,2.78,2.27,5.32,4.76,5.32h6.72V145.52h-6.72A4.8,4.8,0,0,0,102.9,150.37Z" fill="none"/><circle cx="167.61" cy="129.07" r="3.9" fill="#cbd5e0"/><path d="M127.86,138v1.12c0,3.55-3.19,6.45-7.11,6.45h-6.37V156h18.69a6.78,6.78,0,0,1,6.93,5.61,6.56,6.56,0,0,1-1.53,5.3,6.75,6.75,0,0,1-5.11,2.32h-8.92l43.91,25.35L185,185a1.47,1.47,0,0,1-.28-.85,1.48,1.48,0,0,1,2.82-.62l34.84-20.11V133.73a1.47,1.47,0,0,1,0-2.92V101.09l-54-31.16-54,31.16v31.19h6.77C125,132.28,127.86,134.67,127.86,138Zm39,28.2a4.13,4.13,0,1,1-4.22-4.77v-.13a1,1,0,0,1,2,.31l0,.25A4.11,4.11,0,0,1,166.84,166.15Zm-1.94-13a1,1,0,0,1,.83,1.14l-.32,2.08a1,1,0,0,1-1,.85h-.16a1,1,0,0,1-.83-1.14l.32-2.09A1,1,0,0,1,164.9,153.13Zm-.34-4.38.32-2.08a1,1,0,0,1,2,.31l-.32,2.08a1,1,0,0,1-1,.85h-.16A1,1,0,0,1,164.56,148.75Zm2.22-5.19a3,3,0,1,1,3-3A3,3,0,0,1,166.78,143.56Zm36.95,13.49a3,3,0,1,1,3-3A3,3,0,0,1,203.73,157.05Zm-5.46-38,.43-.17a4.17,4.17,0,1,1,.87,1.81l-.57.22a.94.94,0,0,1-.37.07,1,1,0,0,1-.36-1.93Zm-6.75,2.66,1.93-.76a1,1,0,1,1,.73,1.86l-1.92.76a1,1,0,0,1-.37.07,1,1,0,0,1-.37-1.93Zm-6.74,2.65,1.92-.75a1,1,0,0,1,1.3.56,1,1,0,0,1-.56,1.3l-1.93.76a1.15,1.15,0,0,1-.36.07,1,1,0,0,1-.37-1.94Zm-7,.7a3,3,0,1,1-1,4.13A3,3,0,0,1,177.8,125.05ZM169.05,94.4a1.48,1.48,0,1,1-1.48,1.48A1.47,1.47,0,0,1,169.05,94.4Zm-1.44,28.76a5.91,5.91,0,1,1-5.9,5.91A5.92,5.92,0,0,1,167.61,123.16Zm-12.36-1a3,3,0,1,1,1.26,4A3,3,0,0,1,155.25,122.14Zm-4.84-4.32a1,1,0,0,1,1.4-.18l1.67,1.28a1,1,0,1,1-1.22,1.59l-1.67-1.28A1,1,0,0,1,150.41,117.82Zm-5.84-4.49a1,1,0,0,1,1.4-.19l1.67,1.29a1,1,0,0,1,.18,1.4,1,1,0,0,1-.79.39,1,1,0,0,1-.61-.21l-1.67-1.28A1,1,0,0,1,144.57,113.33Zm-10.19-7.4a4.12,4.12,0,0,1,7.19,3.82l.23.18a1,1,0,0,1,.19,1.41,1,1,0,0,1-.8.39,1,1,0,0,1-.61-.21l-.1-.08a4.13,4.13,0,0,1-6.1-5.51Z" fill="#cbd5e0" opacity="0.3"/><path d="M166.78,137.56a3,3,0,1,0,3,3A3,3,0,0,0,166.78,137.56Zm.88,4.21a1,1,0,0,1-1,.85l-.16,0a1,1,0,0,1-.83-1.14l.15-1a1,1,0,1,1,2,.3Z" fill="#cbd5e0"/><path d="M167.61,135a5.91,5.91,0,1,0-5.9-5.9A5.91,5.91,0,0,0,167.61,135Zm0-9.81a3.91,3.91,0,1,1-3.9,3.91A3.92,3.92,0,0,1,167.61,125.16Z" fill="#718096"/><path d="M167,139.64a1,1,0,0,0-1.14.84l-.15,1a1,1,0,0,0,.83,1.14l.16,0a1,1,0,0,0,1-.85l.15-1A1,1,0,0,0,167,139.64Z" fill="#718096"/><path d="M163.76,154l-.32,2.09a1,1,0,0,0,.83,1.14h.16a1,1,0,0,0,1-.85l.32-2.08a1,1,0,1,0-2-.31Z" fill="#718096"/><path d="M165.55,149.91a1,1,0,0,0,1-.85l.32-2.08a1,1,0,0,0-2-.31l-.32,2.08a1,1,0,0,0,.83,1.15Z" fill="#718096"/><path d="M164.57,161.81l0-.25a1,1,0,0,0-2-.31v.13a4.23,4.23,0,0,1,.79,0A4.07,4.07,0,0,1,164.57,161.81Z" fill="#718096"/><path d="M164.57,161.81l-.11.74a1,1,0,0,1-1,.85l-.15,0a1,1,0,0,1-.84-1.14l.14-.86a4.16,4.16,0,1,0,1.95.43Z" fill="#718096"/><path d="M163.32,163.38l.15,0a1,1,0,0,0,1-.85l.11-.74a4.07,4.07,0,0,0-1.16-.39,4.23,4.23,0,0,0-.79,0l-.14.86A1,1,0,0,0,163.32,163.38Z" fill="#718096"/><path d="M180.92,130.18a3,3,0,1,0-4.12-1A3,3,0,0,0,180.92,130.18ZM179,126.62l.93-.37a1,1,0,1,1,.73,1.86l-.93.37a.92.92,0,0,1-.36.07,1,1,0,0,1-.37-1.93Z" fill="#cbd5e0"/><path d="M179.4,128.55a.92.92,0,0,0,.36-.07l.93-.37a1,1,0,1,0-.73-1.86l-.93.37a1,1,0,0,0,.37,1.93Z" fill="#718096"/><path d="M191.89,123.63a1,1,0,0,0,.37-.07l1.92-.76a1,1,0,1,0-.73-1.86l-1.93.76a1,1,0,0,0,.37,1.93Z" fill="#718096"/><path d="M185.15,126.29a1.15,1.15,0,0,0,.36-.07l1.93-.76a1,1,0,0,0,.56-1.3,1,1,0,0,0-1.3-.56l-1.92.75a1,1,0,0,0,.37,1.94Z" fill="#718096"/><path d="M198.63,121a.94.94,0,0,0,.37-.07l.57-.22a3.88,3.88,0,0,1-.64-1,4.6,4.6,0,0,1-.23-.78l-.43.17a1,1,0,0,0,.36,1.93Z" fill="#718096"/><path d="M200.49,119.24a1,1,0,0,1-.56,1.29l-.36.15a4.09,4.09,0,1,0-.87-1.81l.5-.2A1,1,0,0,1,200.49,119.24Z" fill="#718096"/><path d="M199.57,120.68l.36-.15a1,1,0,0,0-.73-1.86l-.5.2a4.6,4.6,0,0,0,.23.78A3.88,3.88,0,0,0,199.57,120.68Z" fill="#718096"/><path d="M156.51,126.19a3,3,0,1,0-1.26-4A3,3,0,0,0,156.51,126.19Zm-.26-3.87a1,1,0,0,1,1.4-.18l.79.61a1,1,0,0,1,.19,1.4,1,1,0,0,1-.8.39,1,1,0,0,1-.61-.21l-.79-.61A1,1,0,0,1,156.25,122.32Z" fill="#cbd5e0"/><path d="M157.22,124.33a1,1,0,0,0,.61.21,1,1,0,0,0,.8-.39,1,1,0,0,0-.19-1.4l-.79-.61a1,1,0,0,0-1.22,1.58Z" fill="#718096"/><path d="M152.26,120.51a1,1,0,0,0,1.22-1.59l-1.67-1.28a1,1,0,0,0-1.4.18,1,1,0,0,0,.18,1.41Z" fill="#718096"/><path d="M146.42,116a1,1,0,0,0,.61.21,1,1,0,0,0,.79-.39,1,1,0,0,0-.18-1.4L146,113.14a1,1,0,0,0-1.22,1.59Z" fill="#718096"/><path d="M140.48,111.44l.1.08a1,1,0,0,0,.61.21,1,1,0,0,0,.8-.39,1,1,0,0,0-.19-1.41l-.23-.18a4,4,0,0,1-.57,1.11A4.87,4.87,0,0,1,140.48,111.44Z" fill="#718096"/><path d="M135.22,111.71a4.15,4.15,0,0,0,5.26-.27l-.69-.53a1,1,0,0,1,1.22-1.59l.56.43a4.12,4.12,0,1,0-6.35,2Z" fill="#718096"/><path d="M139.61,109.51a1,1,0,0,0,.18,1.4l.69.53a4.87,4.87,0,0,0,.52-.58,4,4,0,0,0,.57-1.11l-.56-.43A1,1,0,0,0,139.61,109.51Z" fill="#718096"/><path d="M78.54,183.3a10,10,0,0,1-3.8,4.38,10,10,0,0,1,3.8,4.38,9.57,9.57,0,0,1,3.78-4.38A9.57,9.57,0,0,1,78.54,183.3Z" fill="none"/><path d="M164.08,283.36a1,1,0,0,0,1,1h33.78a1,1,0,0,0,0-2H165.08A1,1,0,0,0,164.08,283.36Z" fill="#718096"/><path d="M138.38,282.36a1,1,0,0,0,0,2h13.78a1,1,0,0,0,0-2Z" fill="#718096"/><path d="M116.29,247.9a1,1,0,0,0-1-1h-62a1,1,0,0,0,0,2h62A1,1,0,0,0,116.29,247.9Z" fill="#718096"/><path d="M266.61,248.78a.93.93,0,0,0,.44.12h9a1,1,0,0,0,0-2h-9a.9.9,0,0,0-.37.07l0,1.39A1,1,0,0,1,266.61,248.78Z" fill="#718096"/><circle cx="138.77" cy="206.98" r="3" fill="#cbd5e0"/><circle cx="149.32" cy="59.42" r="3" fill="#cbd5e0"/><circle cx="203.73" cy="154.05" r="3" fill="#cbd5e0"/><circle cx="169.05" cy="95.88" r="1.48" fill="#cbd5e0"/><circle cx="198.49" cy="71.25" r="1.48" fill="#cbd5e0"/><path d="M222.5,133.75a1.48,1.48,0,0,0,0-3l-.17,0v2.92Z" fill="#cbd5e0"/><path d="M221,132.27a1.46,1.46,0,0,0,1.31,1.46v-2.92A1.46,1.46,0,0,0,221,132.27Z" fill="#cbd5e0"/><circle cx="132.21" cy="72.07" r="1.48" fill="#cbd5e0"/><circle cx="110.56" cy="220.15" r="1.48" fill="#cbd5e0"/><path d="M238.74,112.1a3.85,3.85,0,1,0,3.85-3.85A3.84,3.84,0,0,0,238.74,112.1Z" fill="#cbd5e0"/><circle cx="266.03" cy="169.03" r="3" fill="#cbd5e0"/><circle cx="268.26" cy="140.37" r="1.48" fill="#cbd5e0"/><path d="M186.15,185.63a1.48,1.48,0,0,0,1.48-1.48,1.44,1.44,0,0,0-.14-.62L185,185A1.45,1.45,0,0,0,186.15,185.63Z" fill="#cbd5e0"/><path d="M186.15,182.67a1.49,1.49,0,0,0-1.48,1.48,1.47,1.47,0,0,0,.28.85l2.54-1.47A1.48,1.48,0,0,0,186.15,182.67Z" fill="#cbd5e0"/><path d="M87.17,187.68a1,1,0,0,0-1-1c-5.45,0-6.57-6.49-6.61-6.76a1,1,0,0,0-1-.84,1,1,0,0,0-1,.81c0,.28-1.35,6.79-6.62,6.79a1,1,0,1,0,0,2c5.27,0,6.57,6.51,6.62,6.79a1,1,0,0,0,1,.81h0a1,1,0,0,0,1-.84c0-.27,1.16-6.76,6.61-6.76A1,1,0,0,0,87.17,187.68Zm-8.63,4.38a10,10,0,0,0-3.8-4.38,10,10,0,0,0,3.8-4.38,9.57,9.57,0,0,0,3.78,4.38A9.57,9.57,0,0,0,78.54,192.06Z" fill="#cbd5e0"/><circle cx="91.12" cy="103.17" r="3" fill="#cbd5e0"/><path d="M252.58,267.44a1,1,0,0,0-1.41-.08A124,124,0,0,1,75,255.8a1,1,0,0,0-1.51,1.31A126,126,0,0,0,252.5,268.86,1,1,0,0,0,252.58,267.44Z" fill="#718096"/><circle cx="206.94" cy="198.51" r="1.48" fill="#cbd5e0"/><path d="M107,198.32a1,1,0,0,0-2,0v4.45h2Z" fill="#cbd5e0"/><path d="M106,210.22a1,1,0,0,0,1-1v-4.45h-2v4.45A1,1,0,0,0,106,210.22Z" fill="#cbd5e0"/><path d="M101.27,202.77a1,1,0,0,0,0,2H105v-2Z" fill="#cbd5e0"/><path d="M110.2,204.77a1,1,0,1,0,0-2H107v2Z" fill="#cbd5e0"/><rect x="105.03" y="202.77" width="2" height="2" fill="#cbd5e0"/><path d="M86.4,229.17a1,1,0,0,0,1-1v-2.32h-2v2.32A1,1,0,0,0,86.4,229.17Z" fill="#cbd5e0"/><path d="M87.4,221.53a1,1,0,0,0-2,0v2.32h2Z" fill="#cbd5e0"/><path d="M83.5,223.85a1,1,0,0,0,0,2h1.9v-2Z" fill="#cbd5e0"/><path d="M88.94,225.85a1,1,0,0,0,0-2H87.4v2Z" fill="#cbd5e0"/><rect x="85.4" y="223.85" width="2" height="2" fill="#cbd5e0"/><path d="M168.21,50.61a124.14,124.14,0,0,1,124,124c0,3-.11,6-.32,9a1,1,0,0,0,2,.15c.21-3,.32-6.09.32-9.11a126.14,126.14,0,0,0-126-126c-63.15,0-115.6,46.7-124.62,107.39h2A124.18,124.18,0,0,1,168.21,50.61Z" fill="#718096"/><path d="M57.46,234.74a1,1,0,1,0,1.75-1,124.21,124.21,0,0,1-15-59.17c0-1.8,0-3.6.12-5.38h-2c-.07,1.78-.12,3.58-.12,5.38A126.14,126.14,0,0,0,57.46,234.74Z" fill="#718096"/><path d="M169.09,226.19l25.76,39.87a1,1,0,0,0,.84.46,1.09,1.09,0,0,0,.54-.16,1,1,0,0,0,.3-1.39l-25.88-40.06h-.9Z" fill="#718096"/><path d="M226.76,223l-57.09-.12h0a1,1,0,0,0-.66.26.93.93,0,0,1,.46.1,1,1,0,0,1,.51.68c.05.06.11.1.15.16l.52.8,56.11.12h0a1,1,0,0,0,0-2Z" fill="#718096"/><path d="M170,224a1,1,0,0,1-.08.66l-.15.3h.9l-.52-.8C170.09,224.05,170,224,170,224Z" fill="#718096"/><path d="M170.12,264V233.31a1,1,0,0,0-2,0V264a1,1,0,0,0,2,0Z" fill="#718096"/><path d="M145.19,260l-10.05-10.93a1,1,0,0,0-1.48,1.36l9.9,10.75,1.78.65Z" fill="#718096"/><path d="M145.62,263.42l-2.06-2.24-15.13-5.56a1,1,0,1,0-.69,1.87l17.38,6.39a6.17,6.17,0,0,0,.6-.39Z" fill="#718096"/><path d="M145.72,263.49c.27-.18.52-.37.77-.56h-.14a1,1,0,0,1-1-.92l0-.2-1.78-.65,2.06,2.24Z" fill="#718096"/><path d="M147.24,262.31l.07-.06a1.2,1.2,0,0,0,0-.38l-1.29-16a1,1,0,1,0-2,.16l1.12,14,1.9,2.06A.92.92,0,0,1,147.24,262.31Z" fill="#718096"/><path d="M145.85,262a1,1,0,0,1,.65.9c.25-.2.5-.4.74-.61a.92.92,0,0,0-.15-.25l-1.9-2.06.15,1.83Z" fill="#718096"/><path d="M145.85,262l-.51-.19,0,.2a1,1,0,0,0,1,.92h.15A1,1,0,0,0,145.85,262Z" fill="#718096"/><path d="M168.67,223.9a1,1,0,0,1,.34-.73,1,1,0,0,0-.88.53l-18,35.09a12.57,12.57,0,0,1-2.77,3.46s0,.06-.05.09a1,1,0,0,1-.23,1.13,1,1,0,0,1-.67.27,1.42,1.42,0,0,1-.2,0,1,1,0,0,1-.66.26,1,1,0,0,1-.34-.06l0,0a14.16,14.16,0,0,1-7.27,2.37H107.22a1,1,0,0,0,0,2h30.63c5.3,0,11.58-3.83,14-8.55l17.23-33.51-.64-1A1,1,0,0,1,168.67,223.9Z" fill="#718096"/><path d="M169.66,224.91a1,1,0,0,1-1-1h0a1,1,0,0,0-.22,1.3l.64,1,.66-1.28Z" fill="#718096"/><path d="M168.75,223.82A1,1,0,0,1,170,224a1,1,0,0,0-.51-.68.93.93,0,0,0-.46-.1,1,1,0,0,0-.34.73Z" fill="#718096"/><path d="M168.75,223.82l-.08.08h0a1,1,0,0,0,1,1h.09l.15-.3A1,1,0,0,0,170,224,1,1,0,0,0,168.75,223.82Z" fill="#718096"/><path d="M146.5,262.93a1,1,0,0,1-.06.37,1,1,0,0,1-.28.4,1.42,1.42,0,0,0,.2,0,1,1,0,0,0,.67-.27,1,1,0,0,0,.23-1.13A1,1,0,0,1,146.5,262.93Z" fill="#718096"/><path d="M145.5,264a1,1,0,0,0,.66-.26,1,1,0,0,1-.44-.21,6.17,6.17,0,0,1-.6.39l0,0A1,1,0,0,0,145.5,264Z" fill="#718096"/><path d="M146.5,262.93h0c-.25.19-.5.38-.77.56a1,1,0,0,0,.44.21,1,1,0,0,0,.28-.4A1,1,0,0,0,146.5,262.93Z" fill="#718096"/><path d="M147.26,262.34s0-.06.05-.09l-.07.06Z" fill="#718096"/><path d="M146.5,262.92h0a1,1,0,0,0,.76-.59l0,0C147,262.52,146.75,262.72,146.5,262.92Z" fill="#718096"/><polygon points="146.5 262.92 146.49 262.93 146.5 262.93 146.5 262.92" fill="#718096"/><path d="M237.77,253.42V242.69a1,1,0,0,0-2,0v10.15L222,260.74a10.36,10.36,0,0,0-5.23,9v5.58a1,1,0,0,0,2,0V269.7a8.38,8.38,0,0,1,4.22-7.23l14.27-8.18A1,1,0,0,0,237.77,253.42Z" fill="#718096"/><path d="M229.25,229.7a5.71,5.71,0,0,0-2.94,4.94v.93l-5.59-3.21a5.89,5.89,0,0,0-5.86,0l-4,2.32a5.77,5.77,0,0,0-2.9,5,5.69,5.69,0,0,0,3,5,5.81,5.81,0,0,0,6-.18h0v.66a5.81,5.81,0,0,0,5.83,5.77,5.84,5.84,0,0,0,2.91-.77l2.11-1.2a1,1,0,0,0,.38-1.37,1,1,0,0,0-1.37-.37l-2.11,1.2a3.85,3.85,0,0,1-3.87,0,3.73,3.73,0,0,1-1.88-3.24v-2.48a1,1,0,0,0-1.54-.84l-1.55,1a3.84,3.84,0,0,1-4,.12,3.72,3.72,0,0,1-2-3.29,3.78,3.78,0,0,1,1.9-3.25l4-2.31a3.88,3.88,0,0,1,3.87,0l7.06,4.05a1,1,0,0,0,1,0,1,1,0,0,0,.51-.85l0-2.64a3.73,3.73,0,0,1,1.92-3.21,3.85,3.85,0,0,1,3.88,0l2.16,1.26a1,1,0,0,0,1,0l2.22-1.29a3.87,3.87,0,0,1,3.89,0,3.74,3.74,0,0,1,1.89,3.25v2.58a1,1,0,0,0,.51.87l2.25,1.26a3.74,3.74,0,0,1,0,6.54l-2.25,1.26a1,1,0,0,0,1,1.75L249,247.7a5.73,5.73,0,0,0,0-10l-1.74-1v-2a5.71,5.71,0,0,0-2.89-5,5.85,5.85,0,0,0-5.89,0l-1.71,1-1.66-1A5.84,5.84,0,0,0,229.25,229.7Z" fill="#718096"/><path d="M269.55,202.41a1,1,0,0,1,.38-1.36l1.46-.83c0-.12,0-.25,0-.38a5.61,5.61,0,0,0-2.93-4.93,5.8,5.8,0,0,0-5.64,0L257,198.05l0-.78a5.57,5.57,0,0,0-2.79-5,5.71,5.71,0,0,0-5.84,0l-1.75,1-1.94-1.1a5.73,5.73,0,0,0-5.76,0,5.6,5.6,0,0,0-2.82,4.88v1l-1.15-.64a5.74,5.74,0,0,0-5.7,0,5.59,5.59,0,0,0-2.85,4.8l0,2.29-2,1.18a5.63,5.63,0,0,0,.11,9.74,5.75,5.75,0,0,0,5.59.07l7.47-4a1,1,0,1,0-.95-1.76l-7.47,4a3.79,3.79,0,0,1-3.65,0,3.63,3.63,0,0,1-.07-6.29l2.43-1.46a1,1,0,0,0,.49-.84l.05-2.85a3.63,3.63,0,0,1,1.84-3.1,3.76,3.76,0,0,1,3.73,0l2.64,1.47a1,1,0,0,0,1.49-.87V197.1A3.63,3.63,0,0,1,240,194a3.74,3.74,0,0,1,3.77,0l2.44,1.38a1,1,0,0,0,1,0l2.24-1.31a3.74,3.74,0,0,1,3.82,0,3.59,3.59,0,0,1,1.81,3.21l-.05,2.51a1,1,0,0,0,1.48.9l7.32-4a3.83,3.83,0,0,1,3.75.06,3.62,3.62,0,0,1,0,6.33l-2.4,1.37a1,1,0,0,0-.51.87v2.69a3.62,3.62,0,0,1-1.8,3.14,3.75,3.75,0,0,1-3.75.06l-2.47-1.36a1,1,0,1,0-1,1.75l2.47,1.36a5.73,5.73,0,0,0,5.72-.09,5.6,5.6,0,0,0,2.79-4.86v-2.11l1.9-1.08a5.65,5.65,0,0,0,1.95-1.84A1,1,0,0,1,269.55,202.41Z" fill="#718096"/><path d="M266.36,226.69v.59l28.27-16.38a1,1,0,1,0-1-1.73l-8.24,4.77v1.73a1,1,0,0,1-2,0v-.57l-18,10.45.5.29A1,1,0,0,1,266.36,226.69Z" fill="#718096"/><path d="M310.94,197.36a5.73,5.73,0,0,0-5.81,0,5.59,5.59,0,0,0-2.83,4.93v.82l-7.53-4.23.07-1.88a5.59,5.59,0,0,0-2.66-5,5.73,5.73,0,0,0-5.81-.19l-15,8.42a5.48,5.48,0,0,1-.89,2.69,1,1,0,0,0,.41-.12l16.42-9.23a3.73,3.73,0,0,1,3.79.13,3.61,3.61,0,0,1,1.72,3.22l-.09,2.5a1,1,0,0,0,.51.91l9.56,5.37a1,1,0,0,0,1,0,1,1,0,0,0,.49-.86v-2.54a3.61,3.61,0,0,1,1.83-3.19,3.72,3.72,0,0,1,3.8,0,3.63,3.63,0,0,1,1.83,3l.25,5.31a3.68,3.68,0,0,1-1.72,3.26l-7,4.41a1,1,0,0,0-.47.84v2.73a3.62,3.62,0,0,1-1.83,3.16,3.74,3.74,0,0,1-3.77,0l-2.54-1.44a1,1,0,0,0-1,0,1,1,0,0,0-.5.87V223a3.4,3.4,0,0,1-2,2.77,7.59,7.59,0,0,1-7,.18,1,1,0,0,0-1,0l-8.82,5a1,1,0,0,0,.5,1.87,1,1,0,0,0,.49-.13l8.33-4.74a9.83,9.83,0,0,0,8.48-.43,5.2,5.2,0,0,0,3-4.52v-.07l1.05.59a5.73,5.73,0,0,0,5.77,0,5.59,5.59,0,0,0,2.82-4.88v-2.17l6.57-4.12a5.66,5.66,0,0,0,2.66-5.05l-.25-5.3A5.64,5.64,0,0,0,310.94,197.36Z" fill="#718096"/><path d="M269.93,201.05a1,1,0,0,0-.38,1.36,1,1,0,0,0,.95.5,5.48,5.48,0,0,0,.89-2.69Z" fill="#718096"/><path d="M247.7,215.43a1,1,0,0,1-.43,1.34l-.48.26,17.58,10.25.32,20.66a1,1,0,0,1,.83.5,1,1,0,0,1,0,.9,1,1,0,0,0,.17,0h0a1,1,0,0,0,.89-.6,1,1,0,0,1-.56-.88,1,1,0,0,1,.63-.93l-.31-19.69-.51.29a1,1,0,0,1-.5.13,1,1,0,0,1-.5-1.86l.5-.29-17.55-10.24-.16-10.08a1,1,0,0,0-1-1,1,1,0,0,0-1,1l.16,10,.55-.28A1,1,0,0,1,247.7,215.43Z" fill="#718096"/><path d="M266.05,247.9a1,1,0,0,0,.56.88,1,1,0,0,0,.09-.42l0-1.39A1,1,0,0,0,266.05,247.9Z" fill="#718096"/><path d="M264.49,227.21a1,1,0,0,0,.87.49,1,1,0,0,0,.5-.13l.51-.29v-.59a1,1,0,0,0-.5-.85l-.5-.29-.5.29A1,1,0,0,0,264.49,227.21Z" fill="#718096"/><path d="M235.88,221.53a1,1,0,0,0,.89.54,1.07,1.07,0,0,0,.46-.11l9.56-4.93-.48-.28a1,1,0,0,1-.49-.85v-.62l-9.5,4.9A1,1,0,0,0,235.88,221.53Z" fill="#718096"/><path d="M246.31,216.75l.48.28.48-.26a1,1,0,1,0-.91-1.77l-.55.28v.62A1,1,0,0,0,246.31,216.75Z" fill="#718096"/><path d="M285.4,204.86a1,1,0,0,0-2,0V215.1l2-1.16Z" fill="#718096"/><path d="M284.4,216.67a1,1,0,0,0,1-1v-1.73l-2,1.16v.57A1,1,0,0,0,284.4,216.67Z" fill="#718096"/><path d="M264.7,248.39v-.45a.91.91,0,0,0-.53.11l-23.83,13.12a10.32,10.32,0,0,0-5.37,9,1,1,0,0,0,2,0,8.32,8.32,0,0,1,4.34-7.28l23.82-13.12a1,1,0,0,0,.41-.46A1,1,0,0,1,264.7,248.39Z" fill="#718096"/><path d="M265.52,248.44a1,1,0,0,0-.83-.5v.45a.63.63,0,1,0,.82.05Z" fill="#718096"/><path d="M308.07,129a1,1,0,0,0-1.27-.63,1,1,0,0,0-.63,1.26,144.35,144.35,0,0,1,7.33,45.6c0,4.09-.17,8.22-.51,12.28a1,1,0,0,0,.91,1.08H314a1,1,0,0,0,1-.91c.35-4.11.52-8.3.52-12.45A146.61,146.61,0,0,0,308.07,129Z" fill="#718096"/><path d="M78.93,62a1,1,0,1,0-1.25-1.56A145.83,145.83,0,0,0,23.51,156h2A143.91,143.91,0,0,1,78.93,62Z" fill="#718096"/><path d="M22.24,175.26a145.62,145.62,0,0,0,12.19,58.63,1,1,0,0,0,.92.6,1,1,0,0,0,.4-.09,1,1,0,0,0,.51-1.31,143.78,143.78,0,0,1-12-57.83c0-2,.06-4,.14-6h-2C22.3,171.23,22.24,173.24,22.24,175.26Z" fill="#718096"/><path d="M299.84,239a1,1,0,0,0-1.34.45,146.05,146.05,0,0,1-63.29,64.32,1,1,0,0,0-.43,1.35,1,1,0,0,0,.89.54.92.92,0,0,0,.46-.11,148.12,148.12,0,0,0,64.16-65.21A1,1,0,0,0,299.84,239Z" fill="#718096"/><path d="M43.31,158c.08-.67.18-1.34.28-2H25.52c-.09.66-.17,1.33-.25,2Z" fill="#718096"/><path d="M24.46,167.23c0,.66-.05,1.33-.08,2h18c0-.67.06-1.34.1-2Z" fill="#718096"/><path d="M14.4,167.23a5.28,5.28,0,0,1-5.11-5v-.25c0-2.55,2.45-3.93,4.76-3.93h9.2c.08-.67.17-1.34.26-2H14.05c-3.86,0-6.76,2.55-6.76,5.93v.25a7.27,7.27,0,0,0,7.11,7h8c0-.67.05-1.34.08-2Z" fill="#718096"/><path d="M100.9,150.37v.31c0,3.9,3.16,7.32,6.76,7.32h6.72v-2h-6.72c-2.49,0-4.76-2.54-4.76-5.32v-.31a4.8,4.8,0,0,1,4.76-4.85h6.72v-2h-6.72A6.81,6.81,0,0,0,100.9,150.37Z" fill="#718096"/><path d="M44.44,167.23c0,.66-.08,1.33-.11,2h80.11l-3.46-2Z" fill="#718096"/><path d="M84.53,158a7.44,7.44,0,0,0,7.13-7.17v-.38a7.22,7.22,0,0,0-7.13-6.93h-16c-2.7,0-5.6-1.88-5.6-4.66v-.3c0-2.78,2.89-4.28,5.6-4.28h45.82v-2H68.56c-3.68,0-7.6,2.2-7.6,6.28v.3c0,4,3.93,6.66,7.6,6.66h16a5.24,5.24,0,0,1,5.13,4.93v.38A5.43,5.43,0,0,1,84.53,156H45.61c-.1.66-.19,1.33-.28,2Z" fill="#718096"/><path d="M121.15,134.28c2.27,0,4.71,1.15,4.71,3.67v1.12c0,2.75-2.66,4.45-5.11,4.45h-6.37v2h6.37c3.92,0,7.11-2.9,7.11-6.45V138c0-3.28-2.82-5.67-6.71-5.67h-6.77v2Z" fill="#718096"/><path d="M138.47,166.91a6.56,6.56,0,0,0,1.53-5.3,6.78,6.78,0,0,0-6.93-5.61H114.38v2h18.69a4.8,4.8,0,0,1,5,3.9,4.56,4.56,0,0,1-1.06,3.7,4.73,4.73,0,0,1-3.6,1.63H121l3.46,2h8.92A6.75,6.75,0,0,0,138.47,166.91Z" fill="#718096"/><path d="M44.44,167.23h-2c0,.66-.07,1.33-.1,2h2C44.36,168.56,44.4,167.89,44.44,167.23Z" fill="#718096"/><path d="M45.33,158c.09-.67.18-1.34.28-2h-2c-.1.66-.2,1.33-.28,2Z" fill="#718096"/><path d="M25.27,158c.08-.67.16-1.34.25-2h-2c-.09.66-.18,1.33-.26,2Z" fill="#718096"/><path d="M22.46,167.23c0,.66-.05,1.33-.08,2h2c0-.67.05-1.34.08-2Z" fill="#718096"/></g></svg>