<svg xmlns="http://www.w3.org/2000/svg" width="335" height="335" viewBox="0 0 335 335"><title>app-type-production-purple</title><g id="ready-for-export"><path d="M170.75,73.51a1,1,0,0,0-.44-.55l-1.73-1a1,1,0,0,0-1.37.36s0,.08,0,.11l.86-.49Z" fill="none"/><path d="M169.4,195.8a0,0,0,0,1,0,0,1,1,0,0,0,.88.51.94.94,0,0,0,.48-.13h0a3.92,3.92,0,0,0,.31-1.38Z" fill="none"/><path d="M222.05,107.66a1,1,0,0,0,1-1v-2a1,1,0,0,0-1-1h0v4Z" fill="none"/><path d="M222,163.65h0a1,1,0,0,0,1-1v-1.77a4.17,4.17,0,0,0-1-.44Z" fill="none"/><path d="M109.1,114.73a5.07,5.07,0,0,0,2.43,6.65,3.16,3.16,0,0,0,2.43.14l.09,0v-10.8a7.92,7.92,0,0,0-.79.24A7.24,7.24,0,0,0,109.1,114.73Z" fill="none"/><path d="M218.84,101c-.07.05-.13.12-.19.17l.58.34A1,1,0,0,0,218.84,101Z" fill="none"/><path d="M221.75,166.48A1,1,0,0,0,221,166l-2.3,1.33a3.81,3.81,0,0,0,2.17.78l.48-.27A1,1,0,0,0,221.75,166.48Z" fill="none"/><path d="M119.88,109.41a13.4,13.4,0,0,1,6.41,17.6,17.82,17.82,0,0,1-3.78,5.37c0,.05-.09.06-.14.1a1.14,1.14,0,0,1-.15.16,24.1,24.1,0,0,1-8.17,4.06V145a1.43,1.43,0,0,1,.68-.17,1.48,1.48,0,0,1,0,3,1.55,1.55,0,0,1-.68-.17v17.85l22.66,13.08a1.79,1.79,0,0,1,0-.23,1.48,1.48,0,0,1,3,0,1.49,1.49,0,0,1-1,1.38l22.88,13.21a5.9,5.9,0,0,1,11.46.83l2.44-1.41a1,1,0,0,1,.42-1.25l1.75-1a1,1,0,0,1,1.25.26l2.66-1.54a1,1,0,0,1,.45-1.16l1.74-1a1,1,0,0,1,1.19.18l2.7-1.55a1,1,0,0,1,.47-1.08l1.75-1a1,1,0,0,1,1.13.11l2.15-1.24a1.48,1.48,0,1,1,2.14-1.91l.68-.39a1,1,0,0,1,1.06.06l2.81-1.62a1,1,0,0,1,.5-.88l1.74-1a1,1,0,0,1,1,0l2.91-1.68a1,1,0,0,1,.49-.78l1.75-1a1,1,0,0,1,.86,0l3-1.74a1,1,0,0,1,.48-.67l1.74-1a1,1,0,0,1,.77-.08l1.81-1A5.91,5.91,0,0,1,221,158.31a6.38,6.38,0,0,1,1,.09v-1.75a1,1,0,0,1-1-1v-2a1,1,0,0,1,1-1v-3a1,1,0,0,1-1-1v-2a1,1,0,0,1,1-1v-3a1,1,0,0,1-1-1v-2a1,1,0,0,1,1-1v-3a1,1,0,0,1-1-1v-2a1,1,0,0,1,1-1v-3a1,1,0,0,1-1-1v-2a1,1,0,0,1,1-1v-3a1,1,0,0,1-1-1v-2a1,1,0,0,1,1-1v-3a1,1,0,0,1-1-1v-2a1,1,0,0,1,1-1V110a5.33,5.33,0,0,1-1,.09,5.91,5.91,0,0,1-5.22-8.66,1,1,0,0,1-.1-1.14,1,1,0,0,1,.69-.46L213.18,98a1,1,0,0,1-.07.81,1,1,0,0,1-.87.5,1,1,0,0,1-.5-.13l-1.73-1a1,1,0,0,1-.36-1.37,1,1,0,0,1,.67-.47l-3.2-1.84a1,1,0,0,1-.07.81,1,1,0,0,1-1.37.37l-1.73-1a1,1,0,0,1-.37-1.37,1,1,0,0,1,.68-.47L201.06,91a1,1,0,0,1-.07.81,1,1,0,0,1-1.37.37l-1.73-1a1,1,0,0,1,.3-1.84L195,87.5a.92.92,0,0,1-.06.82,1,1,0,0,1-.86.5,1,1,0,0,1-.5-.13l-1.73-1a1,1,0,0,1,.3-1.84L188.93,84a1,1,0,0,1-.07.81,1,1,0,0,1-.87.5,1,1,0,0,1-.49-.13l-1.74-1a1,1,0,0,1,.31-1.84l-3.2-1.84a1,1,0,0,1-.07.81,1,1,0,0,1-1.37.37l-1.73-1a1,1,0,0,1-.36-1.37,1,1,0,0,1,.67-.47L176.81,77a1,1,0,0,1-.07.81,1,1,0,0,1-1.37.37l-1.73-1a1,1,0,0,1-.33-.32,5.89,5.89,0,0,1-11-1.61L142.82,86.49A1.48,1.48,0,1,1,140.28,88L114.05,103.1v5.54A9.43,9.43,0,0,1,119.88,109.41Zm74,39.36a1.48,1.48,0,1,1,1.48-1.48A1.48,1.48,0,0,1,193.83,148.77ZM157,106a3,3,0,1,1-3,3A3,3,0,0,1,157,106ZM130.25,141.2a4.13,4.13,0,0,1,5.78-.85,4.39,4.39,0,0,1,1.11,1.25l25.19-6.91a4.18,4.18,0,0,1,0-.5,5.9,5.9,0,0,1,5.9-5.9,5.83,5.83,0,0,1,3.63,1.27l18.85-16.77-.19-.35a4.14,4.14,0,1,1,1.51,1.85L173.18,131a5.78,5.78,0,0,1,.94,3.15,5.92,5.92,0,0,1-5.91,5.91l-.43,0-6.13,25.38a4.1,4.1,0,1,1-2-.45l6.14-25.42a5.91,5.91,0,0,1-3-3l-25.17,6.91a4,4,0,0,1-.8,2.6,4.13,4.13,0,0,1-6.62-4.93Z" fill="#cbc0d8" opacity="0.3"/><path d="M174,75.36l-.1,0a.13.13,0,0,1,0,.06Z" fill="#cbc0d8"/><path d="M219.23,101.5l2.78,1.6v.57h0a1,1,0,0,1,1,1v2a1,1,0,0,1-1,1h0V108a3.9,3.9,0,0,0-1-7.67,3.84,3.84,0,0,0-2.19.68A1,1,0,0,1,219.23,101.5Z" fill="none"/><path d="M168.08,70.25a3.91,3.91,0,0,0-3.91,3.9v0l3-1.74s0-.07,0-.11a1,1,0,0,1,1.37-.36l1.73,1a1,1,0,0,1,.44.55l1.23.71v-.07A3.91,3.91,0,0,0,168.08,70.25Z" fill="none"/><path d="M167.27,138a3.71,3.71,0,0,0,.94.13,3.89,3.89,0,0,0,2.88-6.52,3.89,3.89,0,0,0-6.78,2.61,3.92,3.92,0,0,0,.13,1h0A3.9,3.9,0,0,0,167.27,138Z" fill="#cbc0d8" opacity="0.3"/><path d="M272.14,170.39a10.76,10.76,0,0,1,4.31-5,10.73,10.73,0,0,1-4.31-5,10.34,10.34,0,0,1-4.28,5A10.36,10.36,0,0,1,272.14,170.39Z" fill="none"/><path d="M222.05,163.66h0v1.78l-1,.57a1,1,0,0,1,.73.48,1,1,0,0,1-.38,1.36l-.48.27H221a3.9,3.9,0,0,0,2-7.23v1.77A1,1,0,0,1,222.05,163.66Z" fill="none"/><path d="M167.22,198.54a3.91,3.91,0,0,0,3.57-2.34h0a.94.94,0,0,1-.48.13,1,1,0,0,1-.88-.51,0,0,0,0,0,0,0l-1.37.79-4.65-2.68a4.3,4.3,0,0,0-.07.73A3.91,3.91,0,0,0,167.22,198.54Z" fill="none"/><path d="M258.94,260.57a122.87,122.87,0,0,1-90.15,38.86A124.47,124.47,0,0,1,78.2,260.11a1,1,0,1,0-1.46,1.37,126.45,126.45,0,0,0,92.05,39.95A124.86,124.86,0,0,0,260.39,262a1,1,0,0,0,0-1.42A1,1,0,0,0,258.94,260.57Z" fill="#79599f"/><path d="M295.05,247.43H107.55a1,1,0,0,0,0,2h187.5a1,1,0,0,0,0-2Z" fill="#79599f"/><path d="M94.55,248.43a1,1,0,0,0-1-1h-41a1,1,0,1,0,0,2h41A1,1,0,0,0,94.55,248.43Z" fill="#79599f"/><circle cx="69.21" cy="162.9" r="3" fill="#cbc0d8"/><path d="M141.63,85.88A1.49,1.49,0,0,0,140.28,88l2.54-1.47A1.45,1.45,0,0,0,141.63,85.88Z" fill="#cbc0d8"/><path d="M141.63,88.84a1.47,1.47,0,0,0,1.19-2.35L140.28,88A1.48,1.48,0,0,0,141.63,88.84Z" fill="#cbc0d8"/><circle cx="197.75" cy="71.79" r="1.48" fill="#cbc0d8"/><path d="M194.93,87.36A1.48,1.48,0,1,0,192.88,86l1.68,1A1,1,0,0,1,194.93,87.36Z" fill="#cbc0d8"/><circle cx="118.74" cy="78.61" r="1.48" fill="#cbc0d8"/><path d="M113.25,146.27a1.49,1.49,0,0,0,.8,1.31V145A1.49,1.49,0,0,0,113.25,146.27Z" fill="#cbc0d8"/><path d="M116.21,146.27a1.48,1.48,0,0,0-1.48-1.48,1.43,1.43,0,0,0-.68.17v2.62a1.55,1.55,0,0,0,.68.17A1.48,1.48,0,0,0,116.21,146.27Z" fill="#cbc0d8"/><circle cx="99.82" cy="175.68" r="1.48" fill="#cbc0d8"/><circle cx="193.83" cy="147.29" r="1.48" fill="#cbc0d8"/><path d="M222.06,83.72a3.85,3.85,0,1,0,3.84-3.84A3.85,3.85,0,0,0,222.06,83.72Z" fill="#cbc0d8"/><path d="M216.22,201.54a3.84,3.84,0,1,0,3.84-3.85A3.84,3.84,0,0,0,216.22,201.54Z" fill="#cbc0d8"/><circle cx="157" cy="108.97" r="3" fill="#cbc0d8"/><circle cx="251.94" cy="218.64" r="1.48" fill="#cbc0d8"/><circle cx="262.8" cy="115.68" r="1.48" fill="#cbc0d8"/><path d="M193.72,181.76l-.58.33a1.45,1.45,0,0,0,.84.27h0a.76.76,0,0,1-.17-.23A.85.85,0,0,1,193.72,181.76Z" fill="#cbc0d8"/><path d="M194.22,180.77l1.06-.59a1.48,1.48,0,1,0-2.14,1.91l.58-.33A1,1,0,0,1,194.22,180.77Z" fill="#cbc0d8"/><path d="M235.79,267.43a1,1,0,1,0,0-2H215.65a1,1,0,0,0,0,2Z" fill="#79599f"/><path d="M202.32,266.43a1,1,0,0,0-1-1H107a1,1,0,0,0,0,2h94.33A1,1,0,0,0,202.32,266.43Z" fill="#79599f"/><path d="M149.79,281.93a1,1,0,0,0,0,2h33.78a1,1,0,0,0,0-2Z" fill="#79599f"/><path d="M277.38,237.14a1,1,0,0,0,.49.13,1,1,0,0,0,.87-.51,125.33,125.33,0,0,0,11.94-29.4,1,1,0,0,0-.71-1.22,1,1,0,0,0-1.22.71A123.84,123.84,0,0,1,277,235.78,1,1,0,0,0,277.38,237.14Z" fill="#79599f"/><path d="M94.6,75.38A124.16,124.16,0,0,1,292.88,175a126.27,126.27,0,0,1-1.63,20.21,1,1,0,0,0,.82,1.14l.17,0a1,1,0,0,0,1-.84A127.87,127.87,0,0,0,294.88,175,126.15,126.15,0,0,0,93.41,73.78a1,1,0,1,0,1.19,1.6Z" fill="#79599f"/><path d="M47.75,142.85a1,1,0,0,0-1.21.72,127.28,127.28,0,0,0-2.38,51.29,1,1,0,0,0,1,.84h.16a1,1,0,0,0,.83-1.14,125.59,125.59,0,0,1,2.34-50.48A1,1,0,0,0,47.75,142.85Z" fill="#79599f"/><path d="M46.9,207.36a.84.84,0,0,1-.11-.21,1,1,0,0,0,0,.24c.93,3.5,2,7,3.25,10.39a1,1,0,0,0,.94.66,1,1,0,0,0,.34-.06,1,1,0,0,0,.6-1.28c-1.18-3.26-2.23-6.62-3.12-10l-.51.4A1,1,0,0,1,46.9,207.36Z" fill="#79599f"/><path d="M55.64,226.43a1,1,0,1,0-1.83.81c1.34,3,2.41,4.95,3.89,7.64l.47.85a1,1,0,0,0,.87.51,1.07,1.07,0,0,0,.49-.12,1,1,0,0,0,.39-1.36l-.47-.85C58,231.27,56.94,229.36,55.64,226.43Z" fill="#79599f"/><path d="M23.59,176.45a145.12,145.12,0,0,1,2.63-27.57,1,1,0,0,0-2-.38,148.22,148.22,0,0,0-2.66,27.95,145.5,145.5,0,0,0,14.28,63.22,1,1,0,0,0,.91.57,1.12,1.12,0,0,0,.43-.1,1,1,0,0,0,.47-1.34A143.32,143.32,0,0,1,23.59,176.45Z" fill="#79599f"/><path d="M312.3,148.49a1,1,0,0,0-1.17-.79,1,1,0,0,0-.79,1.17A146.12,146.12,0,0,1,313,176.45a143.43,143.43,0,0,1-13.61,61.34,1,1,0,0,0,.48,1.33.9.9,0,0,0,.42.1,1,1,0,0,0,.91-.58A145.49,145.49,0,0,0,315,176.45,147.59,147.59,0,0,0,312.3,148.49Z" fill="#79599f"/><path d="M308.16,136.6a1.35,1.35,0,0,0,.28,0,1,1,0,0,0,.68-1.24,145.64,145.64,0,0,0-10.59-26.39,1,1,0,0,0-1.34-.43,1,1,0,0,0-.43,1.35,143.83,143.83,0,0,1,10.44,26A1,1,0,0,0,308.16,136.6Z" fill="#79599f"/><path d="M249.23,140.7a1,1,0,0,0,2,0v-4.45h-2Z" fill="#cbc0d8"/><path d="M251.23,129.8a1,1,0,0,0-2,0v4.45h2Z" fill="#cbc0d8"/><path d="M245.47,134.25a1,1,0,0,0,0,2h3.76v-2Z" fill="#cbc0d8"/><path d="M255.4,135.25a1,1,0,0,0-1-1h-3.17v2h3.17A1,1,0,0,0,255.4,135.25Z" fill="#cbc0d8"/><rect x="249.23" y="134.25" width="2" height="2" fill="#cbc0d8"/><path d="M260.13,187.76a1,1,0,0,0-2,0v2.73h2Z" fill="#cbc0d8"/><path d="M259.13,196.22a1,1,0,0,0,1-1v-2.73h-2v2.73A1,1,0,0,0,259.13,196.22Z" fill="#cbc0d8"/><path d="M255.87,190.49a1,1,0,0,0,0,2h2.26v-2Z" fill="#cbc0d8"/><path d="M262,192.49a1,1,0,0,0,0-2h-1.85v2Z" fill="#cbc0d8"/><rect x="258.13" y="190.49" width="2" height="2" fill="#cbc0d8"/><path d="M142.26,219.9l-23.36,13a1,1,0,0,0,.48,1.87,1.07,1.07,0,0,0,.49-.12l28.55-15.88A10.13,10.13,0,0,1,142.26,219.9Z" fill="#79599f"/><path d="M151.91,214.54,147.45,217l.09-.05Z" fill="#79599f"/><path d="M72.25,212l4.62,2.57a6.09,6.09,0,0,0,6-.08l3.9-2.3a4.12,4.12,0,0,1,4.08,0l4.17,2.42a6.08,6.08,0,0,0,6.22-.09l3.84-2.35a4.1,4.1,0,0,1,4.27,0l3.61,2.22a6.07,6.07,0,0,0,6.24.07l6-3.48-2-1.15-5,2.9a4.07,4.07,0,0,1-4.19-.05l-3.61-2.21a6.05,6.05,0,0,0-6.35,0l-3.84,2.35a4.09,4.09,0,0,1-4.18,0l-4.17-2.41a6.1,6.1,0,0,0-6.09,0l-3.9,2.3a4.09,4.09,0,0,1-4,.05l-4.62-2.57c-2.34-1.3-4.76-1-7.14.92L39.63,230.49a1,1,0,0,0-.22,1.4,1,1,0,0,0,.81.41,1,1,0,0,0,.59-.19L67.3,212.74C69.09,211.31,70.61,211.07,72.25,212Z" fill="#79599f"/><path d="M108,219.94a1,1,0,0,0-1.36-.39l-6.85,3.82a4.08,4.08,0,0,1-4,0l-3.93-2.26a6.06,6.06,0,0,0-6.22.08l-3.48,2.2a4.08,4.08,0,0,1-4.21.1l-6.42-3.67a1,1,0,0,0-1,1.74l6.42,3.66a6,6,0,0,0,6.27-.14l3.47-2.19a4.06,4.06,0,0,1,4.16,0l3.93,2.27a6.09,6.09,0,0,0,6,0l6.85-3.81A1,1,0,0,0,108,219.94Z" fill="#79599f"/><path d="M126,209.34a1,1,0,0,1-.36,1.37l-.45.25,13.39,7.7a10,10,0,0,0,3.68,1.24l5.19-2.88a8.13,8.13,0,0,1-7.87-.1l-50.5-29c-7.41-4.26-16-3.14-23,3L47.06,206a1,1,0,0,0-.27,1.19,1,1,0,0,1,.72-1,1,1,0,0,1,1.23.71c0,.08,0,.16.07.25l18.56-14.71c6.34-5.56,14.08-6.6,20.71-2.79l35.11,20.18,1.44-.83A1,1,0,0,1,126,209.34Z" fill="#79599f"/><path d="M153.57,214.75a1,1,0,0,1-.39,1.36l-4.76,2.66.09-.05,9.53-5.31a8.11,8.11,0,0,1,8,.05L192.83,229a1,1,0,0,0,.49.13,1,1,0,0,0,.87-.5,1,1,0,0,0-.36-1.37l-11.51-6.64-1.1.65a1,1,0,1,1-1-1.72l.13-.08L167,211.73a10.12,10.12,0,0,0-9.94-.07l-5.16,2.88.3-.17A1,1,0,0,1,153.57,214.75Z" fill="#79599f"/><path d="M47.51,206.17a1,1,0,0,0-.72,1,.84.84,0,0,0,.11.21,1,1,0,0,0,1.4.17l.51-.4c0-.09-.05-.17-.07-.25A1,1,0,0,0,47.51,206.17Z" fill="#79599f"/><path d="M148.42,218.77l4.76-2.66a1,1,0,0,0,.39-1.36,1,1,0,0,0-1.36-.38l-.3.17L147.54,217l-.09.05-5.19,2.88A10.13,10.13,0,0,0,148.42,218.77Z" fill="#79599f"/><path d="M125.64,210.71a1,1,0,0,0,.36-1.37,1,1,0,0,0-1.37-.36l-1.44.83,2,1.15Z" fill="#79599f"/><path d="M190.85,215.5l42.7,22.73a1,1,0,0,0,1.35-.42,1,1,0,0,0-.41-1.35l-43.2-23a1,1,0,0,0-1,0l-10,5.93,2,1.15Z" fill="#79599f"/><path d="M179.85,220.87a1,1,0,0,0,1.37.35l1.1-.65-2-1.15-.13.08A1,1,0,0,0,179.85,220.87Z" fill="#79599f"/><path d="M28.88,136.66a19,19,0,0,1-5.46-.8,19,19,0,0,0,5.46.81c.61,0,1.21,0,1.82-.1-.41,0-.83.07-1.24.08Z" fill="#79599f"/><path d="M31.81,136.44c-.36.05-.73.1-1.09.13C31.08,136.54,31.45,136.49,31.81,136.44Z" fill="#79599f"/><path d="M31.9,136.42A18.85,18.85,0,0,0,45,127.82v0A19,19,0,0,1,31.9,136.42Z" fill="#79599f"/><path d="M20.29,134.61l.06,0c.45.22.9.41,1.35.6C21.22,135.06,20.75,134.84,20.29,134.61Z" fill="#79599f"/><path d="M45.1,125.53a.92.92,0,0,1,.33.29,1,1,0,0,1,.35,0,1,1,0,0,0-.5-.63,1,1,0,0,0-1.35.42,1.88,1.88,0,0,1-.14.24A1,1,0,0,1,45.1,125.53Z" fill="#79599f"/><path d="M45.71,126.56c-.23.43-.47.85-.73,1.26A26.94,26.94,0,0,0,67.9,140.7a1,1,0,0,1,0-2,24.93,24.93,0,0,1-21.5-12.39,1,1,0,0,0-.62-.47A1,1,0,0,1,45.71,126.56Z" fill="#79599f"/><path d="M45.5,126.89c-.17.3-.35.6-.53.9v0c.26-.41.5-.83.73-1.26a1,1,0,0,0,.07-.72,1,1,0,0,0-.35,0A1,1,0,0,1,45.5,126.89Z" fill="#79599f"/><path d="M263.85,166.43c6,0,7.22,7.12,7.27,7.42a1,1,0,0,0,1,.84h0a1,1,0,0,0,1-.81c.06-.31,1.48-7.45,7.28-7.45a1,1,0,0,0,0-2c-5.8,0-7.22-7.15-7.28-7.45a1,1,0,0,0-1-.82h0a1,1,0,0,0-1,.85c0,.07-1.25,7.42-7.27,7.42a1,1,0,0,0,0,2Zm8.29-6a10.73,10.73,0,0,0,4.31,5,10.76,10.76,0,0,0-4.31,5,10.36,10.36,0,0,0-4.28-5A10.34,10.34,0,0,0,272.14,160.46Z" fill="#cbc0d8"/><path d="M138.17,179.76a1.56,1.56,0,0,0,.53-.1l-2-1.15A1.48,1.48,0,0,0,138.17,179.76Z" fill="#cbc0d8"/><path d="M139.65,178.28a1.48,1.48,0,0,0-3,0,1.79,1.79,0,0,0,0,.23l2,1.15A1.49,1.49,0,0,0,139.65,178.28Z" fill="#cbc0d8"/><path d="M91.38,95.22a.82.82,0,0,1-.22,0,1,1,0,0,1-.76-.78,10.82,10.82,0,0,1-13.08,8.09,7.65,7.65,0,0,1-5.65-9.07,4.89,4.89,0,0,1,2.17-3.1,4.76,4.76,0,0,1,3.66-.61,3.25,3.25,0,0,1,2.39,3.84,1,1,0,0,0,2,.43A5.25,5.25,0,0,0,78,87.78,6.84,6.84,0,0,0,69.72,93a9.66,9.66,0,0,0,7.14,11.45,12.88,12.88,0,0,0,3,.35A12.85,12.85,0,0,0,92.41,94.64a1.13,1.13,0,0,0,0-.45c0,.08,0,.17-.05.25A1,1,0,0,1,91.38,95.22Z" fill="#79599f"/><path d="M159.86,169.64l-.24,0a1,1,0,0,1-.73-1.21l.81-3.39a4.16,4.16,0,1,0,2,.45l-.82,3.41A1,1,0,0,1,159.86,169.64Z" fill="#79599f"/><path d="M194.25,111a1,1,0,0,1-.08,1.41L192,114.29a4.12,4.12,0,1,0-1.51-1.85l.19.35,2.15-1.91A1,1,0,0,1,194.25,111Z" fill="#79599f"/><path d="M131.1,147a4.11,4.11,0,0,0,5.77-.84,4,4,0,0,0,.8-2.6l-3.5,1-.27,0h-.07l-.13,0-.21-.07a.35.35,0,0,1-.12-.07.65.65,0,0,1-.18-.15.34.34,0,0,1-.08-.09.76.76,0,0,1-.17-.32,1,1,0,0,1,.7-1.23l3.5-1a4.39,4.39,0,0,0-1.11-1.25A4.13,4.13,0,1,0,131.1,147Z" fill="#79599f"/><path d="M164.44,135.15a3.87,3.87,0,0,1,3.77-4.86,3.87,3.87,0,0,1,2.88,1.29l-.68-.75,20.28-18h0l-18.85,16.77a5.83,5.83,0,0,0-3.63-1.27,5.9,5.9,0,0,0-5.9,5.9,4.18,4.18,0,0,0,0,.5l1.86-.51Z" fill="#79599f"/><polygon points="137.67 143.53 162.84 136.62 162.84 136.62 137.67 143.53" fill="#79599f"/><polygon points="192.84 110.88 190.69 112.79 190.69 112.79 192.84 110.88" fill="#79599f"/><path d="M133.9,144.52l.27,0a1,1,0,0,1-.34,0Z" fill="#79599f"/><polygon points="165.84 139.59 165.84 139.59 159.71 165.01 159.71 165.01 165.84 139.59" fill="#79599f"/><path d="M171.09,131.58a3.89,3.89,0,0,1-2.88,6.52,3.71,3.71,0,0,1-.94-.13l1,.24-.45,1.87.43,0a5.92,5.92,0,0,0,5.91-5.91,5.78,5.78,0,0,0-.94-3.15L192,114.29l-20.26,18Z" fill="#79599f"/><polygon points="159.71 165.01 159.71 165.01 158.89 168.4 159.71 165.01" fill="#79599f"/><path d="M190.69,112.79l-20.28,18,.68.75.66.73,20.26-18A4.27,4.27,0,0,1,190.69,112.79Z" fill="#79599f"/><path d="M194.25,111a1,1,0,0,0-1.41-.08l-2.15,1.91a4.27,4.27,0,0,0,1.32,1.5l2.16-1.92A1,1,0,0,0,194.25,111Z" fill="#79599f"/><path d="M167.27,138a3.9,3.9,0,0,1-2.83-2.81h0l.25,1-1.85.51a5.91,5.91,0,0,0,3,3l.45-1.87Z" fill="#79599f"/><polygon points="161.65 165.46 161.65 165.46 167.78 140.08 167.78 140.08 161.65 165.46" fill="#79599f"/><polygon points="160.83 168.87 161.65 165.46 161.65 165.46 160.83 168.87" fill="#79599f"/><path d="M162.84,136.62h0l1.85-.51-.25-1h0l-.25-1-1.86.51-25.19,6.91a4.08,4.08,0,0,1,.53,1.93Z" fill="#79599f"/><path d="M132.94,143.79a.76.76,0,0,0,.17.32.34.34,0,0,0,.08.09.65.65,0,0,0,.18.15.35.35,0,0,0,.12.07l.21.07.13,0a1,1,0,0,0,.34,0l3.5-1a4.08,4.08,0,0,0-.53-1.93l-3.5,1A1,1,0,0,0,132.94,143.79Z" fill="#79599f"/><path d="M167.27,138l-1-.25-.45,1.87h0L159.71,165a3.72,3.72,0,0,1,.74,0,4,4,0,0,1,1.2.41l6.13-25.38h0l.45-1.87Z" fill="#79599f"/><path d="M159.62,169.61l.24,0a1,1,0,0,0,1-.77l.82-3.41a4,4,0,0,0-1.2-.41,3.72,3.72,0,0,0-.74,0l-.82,3.39A1,1,0,0,0,159.62,169.61Z" fill="#79599f"/><path d="M212.15,171.86a1,1,0,0,0,.88.51,1,1,0,0,0,.48-.12l1.75-1a1,1,0,0,0,.38-1.36,1,1,0,0,0-.59-.47l-3,1.73A1,1,0,0,0,212.15,171.86Z" fill="#79599f"/><path d="M214.28,169.52l-1.74,1a1,1,0,0,0-.48.67l3-1.73A1,1,0,0,0,214.28,169.52Z" fill="#79599f"/><path d="M222.05,121.66a1,1,0,0,0,1-1v-2a1,1,0,0,0-1-1h0v4Z" fill="#79599f"/><path d="M221.05,118.66v2a1,1,0,0,0,1,1v-4A1,1,0,0,0,221.05,118.66Z" fill="#79599f"/><path d="M212.74,97.46l-1.73-1a1,1,0,0,0-.69-.11L213.18,98A1,1,0,0,0,212.74,97.46Z" fill="#79599f"/><path d="M209.65,96.82a1,1,0,0,0,.36,1.37l1.73,1a1,1,0,0,0,.5.13,1,1,0,0,0,.87-.5,1,1,0,0,0,.07-.81l-2.86-1.66A1,1,0,0,0,209.65,96.82Z" fill="#79599f"/><path d="M222.05,149.66a1,1,0,0,0,1-1v-2a1,1,0,0,0-1-1h0v4Z" fill="#79599f"/><path d="M221.05,146.66v2a1,1,0,0,0,1,1v-4A1,1,0,0,0,221.05,146.66Z" fill="#79599f"/><path d="M222.05,142.66a1,1,0,0,0,1-1v-2a1,1,0,0,0-1-1h0v4Z" fill="#79599f"/><path d="M221.05,139.66v2a1,1,0,0,0,1,1v-4A1,1,0,0,0,221.05,139.66Z" fill="#79599f"/><path d="M222.05,156.66a1,1,0,0,0,1-1v-2a1,1,0,0,0-1-1h0v4Z" fill="#79599f"/><path d="M221.05,153.66v2a1,1,0,0,0,1,1v-4A1,1,0,0,0,221.05,153.66Z" fill="#79599f"/><path d="M222.05,135.66a1,1,0,0,0,1-1v-2a1,1,0,0,0-1-1h0v4Z" fill="#79599f"/><path d="M221.05,132.66v2a1,1,0,0,0,1,1v-4A1,1,0,0,0,221.05,132.66Z" fill="#79599f"/><path d="M222.05,114.66a1,1,0,0,0,1-1v-2a1,1,0,0,0-1-1h0v4Z" fill="#79599f"/><path d="M221.05,111.66v2a1,1,0,0,0,1,1v-4A1,1,0,0,0,221.05,111.66Z" fill="#79599f"/><path d="M222.05,128.66a1,1,0,0,0,1-1v-2a1,1,0,0,0-1-1h0v4Z" fill="#79599f"/><path d="M221.05,125.66v2a1,1,0,0,0,1,1v-4A1,1,0,0,0,221.05,125.66Z" fill="#79599f"/><path d="M188.5,83.46l-1.74-1a1,1,0,0,0-.69-.11L188.93,84A1,1,0,0,0,188.5,83.46Z" fill="#79599f"/><path d="M185.4,82.82a1,1,0,0,0,.36,1.37l1.74,1a1,1,0,0,0,.49.13,1,1,0,0,0,.87-.5,1,1,0,0,0,.07-.81l-2.86-1.66A1,1,0,0,0,185.4,82.82Z" fill="#79599f"/><path d="M206.05,175.29a1,1,0,0,0,.87.51,1,1,0,0,0,.49-.13l1.74-1a1,1,0,0,0,.39-1.36,1,1,0,0,0-.5-.42l-3.1,1.79A1,1,0,0,0,206.05,175.29Z" fill="#79599f"/><path d="M208.18,173l-1.75,1a1,1,0,0,0-.49.78l3.1-1.79A1,1,0,0,0,208.18,173Z" fill="#79599f"/><path d="M187.73,185.56a1,1,0,0,0,.87.51,1,1,0,0,0,.49-.13l1.75-1a1,1,0,0,0,.15-1.63l-3.35,1.94A1.08,1.08,0,0,0,187.73,185.56Z" fill="#79599f"/><path d="M189.86,183.22l-1.75,1a1,1,0,0,0-.47,1.08l3.35-1.94A1,1,0,0,0,189.86,183.22Z" fill="#79599f"/><path d="M181.62,189a1,1,0,0,0,.88.51,1,1,0,0,0,.49-.13l1.74-1a1,1,0,0,0,.38-1.36,1.06,1.06,0,0,0-.17-.2l-3.38,2A1.17,1.17,0,0,0,181.62,189Z" fill="#79599f"/><path d="M183.75,186.64l-1.74,1a1,1,0,0,0-.45,1.16l3.38-2A1,1,0,0,0,183.75,186.64Z" fill="#79599f"/><path d="M195.46,180.88a1.48,1.48,0,0,1-1.45,1.48,1,1,0,0,0,.7.28,1.11,1.11,0,0,0,.49-.12l1.74-1a1,1,0,0,0,.39-1.36,1.09,1.09,0,0,0-.31-.33l-1.57.91S195.46,180.84,195.46,180.88Z" fill="#79599f"/><path d="M196,179.79l-.68.39a1.57,1.57,0,0,1,.17.58l1.57-.91A1,1,0,0,0,196,179.79Z" fill="#79599f"/><path d="M175.52,192.4a1,1,0,0,0,.87.51,1,1,0,0,0,.49-.12l1.74-1a1,1,0,0,0,.39-1.36.75.75,0,0,0-.11-.13l-3.42,2S175.5,192.37,175.52,192.4Z" fill="#79599f"/><path d="M177.65,190.06l-1.75,1a1,1,0,0,0-.42,1.25l3.42-2A1,1,0,0,0,177.65,190.06Z" fill="#79599f"/><path d="M176.37,76.46l-1.73-1a1,1,0,0,0-.68-.1L176.81,77A1,1,0,0,0,176.37,76.46Z" fill="#79599f"/><path d="M173.31,76.87a1,1,0,0,0,.33.32l1.73,1a1,1,0,0,0,1.37-.37,1,1,0,0,0,.07-.81L174,75.36h-.11A5.6,5.6,0,0,1,173.31,76.87Z" fill="#79599f"/><path d="M200.62,90.46l-1.73-1a1,1,0,0,0-.7-.11L201.06,91A1,1,0,0,0,200.62,90.46Z" fill="#79599f"/><path d="M197.52,89.82a1,1,0,0,0,.37,1.37l1.73,1a1,1,0,0,0,1.37-.37,1,1,0,0,0,.07-.81l-2.87-1.66A1,1,0,0,0,197.52,89.82Z" fill="#79599f"/><path d="M199.94,178.71a1,1,0,0,0,.88.51.94.94,0,0,0,.48-.13l1.75-1a1,1,0,0,0,.38-1.36,1,1,0,0,0-.4-.37l-3.2,1.85A1,1,0,0,0,199.94,178.71Z" fill="#79599f"/><path d="M202.07,176.37l-1.74,1a1,1,0,0,0-.5.88l3.2-1.85A1,1,0,0,0,202.07,176.37Z" fill="#79599f"/><path d="M206.68,94,205,93a1,1,0,0,0-.69-.11l2.86,1.66A1,1,0,0,0,206.68,94Z" fill="#79599f"/><path d="M203.58,93.32a1,1,0,0,0,.37,1.37l1.73,1a1,1,0,0,0,1.37-.37,1,1,0,0,0,.07-.81l-2.86-1.66A1,1,0,0,0,203.58,93.32Z" fill="#79599f"/><path d="M182.43,80l-1.73-1a1,1,0,0,0-.69-.11l2.86,1.66A1,1,0,0,0,182.43,80Z" fill="#79599f"/><path d="M179.34,79.32a1,1,0,0,0,.36,1.37l1.73,1a1,1,0,0,0,1.37-.37,1,1,0,0,0,.07-.81L180,78.85A1,1,0,0,0,179.34,79.32Z" fill="#79599f"/><path d="M192.88,86h0l0,0a1,1,0,0,0-.7-.11l.78.45A1.53,1.53,0,0,1,192.88,86Z" fill="#79599f"/><path d="M195,87.5l0-.14-.12,0Z" fill="#79599f"/><path d="M191.46,86.32a1,1,0,0,0,.37,1.37l1.73,1a1,1,0,0,0,.5.13,1,1,0,0,0,.86-.5.92.92,0,0,0,.06-.82l-.17-.1a1.33,1.33,0,0,1-.45.08,1.48,1.48,0,0,1-1.45-1.18l-.78-.45A1,1,0,0,0,191.46,86.32Z" fill="#79599f"/><path d="M217,99.93a1,1,0,0,0-.58-.07l.42.25Z" fill="#79599f"/><path d="M215.71,100.32a1,1,0,0,0,.1,1.14,6.1,6.1,0,0,1,1-1.35l-.42-.25A1,1,0,0,0,215.71,100.32Z" fill="#79599f"/><path d="M192.91,86.3l1.9,1.1.12,0a1,1,0,0,0-.37-.4l-1.68-1h0A1.53,1.53,0,0,0,192.91,86.3Z" fill="#79599f"/><path d="M194.36,87.48a1.33,1.33,0,0,0,.45-.08l-1.9-1.1A1.48,1.48,0,0,0,194.36,87.48Z" fill="#79599f"/><path d="M195.46,180.88s0-.08,0-.12l-1.73,1a.85.85,0,0,0,.12.37.76.76,0,0,0,.17.23A1.48,1.48,0,0,0,195.46,180.88Z" fill="#79599f"/><path d="M193.72,181.76l1.73-1a1.57,1.57,0,0,0-.17-.58l-1.06.59A1,1,0,0,0,193.72,181.76Z" fill="#79599f"/><path d="M164.17,74.15a3.91,3.91,0,0,1,7.81,0v.07l1.88,1.09a5.57,5.57,0,0,0,.12-1.16,5.91,5.91,0,0,0-11.81,0,5.8,5.8,0,0,0,.11,1.11l1.89-1.09Z" fill="#79599f"/><path d="M168.08,80.06a5.9,5.9,0,0,0,5.23-3.19,1,1,0,0,1,.54-1.5.13.13,0,0,0,0-.06L172,74.22a3.91,3.91,0,0,1-7.81,0l-1.89,1.09A5.91,5.91,0,0,0,168.08,80.06Z" fill="#79599f"/><path d="M173.27,75.82a1,1,0,0,0,0,1.05,5.6,5.6,0,0,0,.54-1.5A1,1,0,0,0,173.27,75.82Z" fill="#79599f"/><path d="M218.81,101l0,0a3.84,3.84,0,0,1,2.19-.68,3.9,3.9,0,0,1,1,7.67v2a5.9,5.9,0,1,0-5-10.1s.07,0,.09,0Z" fill="#79599f"/><path d="M221,108.12a3.91,3.91,0,0,1-3.9-3.9,3.82,3.82,0,0,1,.4-1.69l-1.46-.84a1.13,1.13,0,0,1-.26-.23,5.91,5.91,0,0,0,5.22,8.66,5.33,5.33,0,0,0,1-.09v-2A4,4,0,0,1,221,108.12Z" fill="#79599f"/><path d="M218.65,101.16c.06,0,.12-.12.19-.17l0,0-1.74-1s-.06,0-.09,0l-.16.18Z" fill="#79599f"/><path d="M217.53,102.53a3.91,3.91,0,0,1,1.12-1.37l-1.83-1a6.1,6.1,0,0,0-1,1.35,1.13,1.13,0,0,0,.26.23Z" fill="#79599f"/><path d="M172.9,193.87a1,1,0,0,1-.38,1.36l-1.73,1a3.9,3.9,0,0,1-7.48-1.56,4.3,4.3,0,0,1,.07-.73l-1.8-1a6.07,6.07,0,0,0-.27,1.77,5.91,5.91,0,0,0,11.81,0,5.77,5.77,0,0,0-.08-.94l-.19.11Z" fill="#79599f"/><path d="M167.22,188.73a5.93,5.93,0,0,0-5.64,4.14l1.8,1a3.9,3.9,0,0,1,7.64-.13l.52-.29a1,1,0,0,1,1.31.32l.19-.11A5.91,5.91,0,0,0,167.22,188.73Z" fill="#79599f"/><path d="M170.79,196.2l1.73-1a1,1,0,0,0,.38-1.36l-.05-.06-1.75,1A3.92,3.92,0,0,1,170.79,196.2Z" fill="#79599f"/><path d="M171.1,194.82l1.75-1a1,1,0,0,0-1.31-.32l-.52.29a4,4,0,0,1,.1.86C171.12,194.7,171.1,194.76,171.1,194.82Z" fill="#79599f"/><path d="M222.05,159.66a1,1,0,0,1,1,1v.23a3.9,3.9,0,0,1-2,7.23h-.14l-1.27.71a1,1,0,0,1-.49.13,1,1,0,0,1-.87-.51,1,1,0,0,1,0-.83l-1.36.79a5.9,5.9,0,1,0,5.15-10v1.27Z" fill="#79599f"/><path d="M215.13,164.22a5.9,5.9,0,0,0,1.73,4.18l1.36-.79a1.05,1.05,0,0,1,.3-.43,3.84,3.84,0,0,1-1.39-3,3.91,3.91,0,0,1,3.9-3.91h.09a1,1,0,0,1,.89-.65V158.4a6.38,6.38,0,0,0-1-.09A5.91,5.91,0,0,0,215.13,164.22Z" fill="#79599f"/><path d="M223.05,160.89v-.23a1,1,0,0,0-1-1h0v.78A4.17,4.17,0,0,1,223.05,160.89Z" fill="#79599f"/><path d="M222,159.67a1,1,0,0,0-.89.65,4.34,4.34,0,0,1,.89.13Z" fill="#79599f"/><path d="M218.26,168.44a1,1,0,0,0,.87.51,1,1,0,0,0,.49-.13l1.27-.71a3.81,3.81,0,0,1-2.17-.78l-.5.28A1,1,0,0,0,218.26,168.44Z" fill="#79599f"/><path d="M218.52,167.18a1.05,1.05,0,0,0-.3.43l.5-.28A1.49,1.49,0,0,1,218.52,167.18Z" fill="#79599f"/><path d="M43.79,125.87s0,0,0,.06a16.91,16.91,0,0,1-8.93,7.67A16.73,16.73,0,0,0,43.79,125.87Z" fill="#79599f"/><path d="M51.25,91.31a.11.11,0,0,1,0,0,.83.83,0,0,1-.09.16S51.23,91.36,51.25,91.31Z" fill="#79599f"/><path d="M26.12,134.43c.44.07.88.12,1.32.16C27,134.55,26.56,134.5,26.12,134.43Z" fill="#79599f"/><path d="M19.91,133.31a1,1,0,0,1,1.34-.44,16.73,16.73,0,0,0,4.69,1.53A16.69,16.69,0,0,1,12,118.61a16.34,16.34,0,0,1,4.47-11.73A17.13,17.13,0,0,1,35.82,103l1.79.79-.4-1.91a9.27,9.27,0,0,1-.21-1.59,8.88,8.88,0,0,1,2.44-6.39,9.24,9.24,0,0,1,10.49-2.1h0a1,1,0,0,1-.61-.83c-.05-.51-.06-1-.07-1.52a10.61,10.61,0,0,0-3.4-.45A11.19,11.19,0,0,0,38,92.55a10.88,10.88,0,0,0-3,7.83v.19a19.12,19.12,0,0,0-19.95,4.94,18.24,18.24,0,0,0-5,13.16,18.57,18.57,0,0,0,10.25,15.94A1,1,0,0,1,19.91,133.31Z" fill="#79599f"/><path d="M29.18,134.65c-.46,0-.92,0-1.37,0C28.27,134.65,28.72,134.66,29.18,134.65Z" fill="#79599f"/><path d="M21.71,135.26q.86.35,1.71.6a19,19,0,0,0,5.46.8h.58c.41,0,.83,0,1.24-.08h0c.36,0,.73-.08,1.09-.13l.09,0A19,19,0,0,0,45,127.79c-.1-.16-.21-.31-.3-.48A1,1,0,0,1,45,126a.86.86,0,0,1,.4-.13.92.92,0,0,0-.33-.29,1,1,0,0,0-1.31.34,16.73,16.73,0,0,1-9,7.73h0a17.11,17.11,0,0,1-2.93.79l-.41.07a8.46,8.46,0,0,1-.88.11l-.38,0c-.27,0-.53.05-.8.05h-.22c-.46,0-.91,0-1.37,0l-.37,0c-.44,0-.88-.09-1.32-.16l-.18,0a16.73,16.73,0,0,1-4.69-1.53,1,1,0,0,0-1,1.74c.46.23.93.45,1.41.65Z" fill="#79599f"/><path d="M23.42,135.86q-.86-.26-1.71-.6A17.32,17.32,0,0,0,23.42,135.86Z" fill="#79599f"/><path d="M31.9,136.42l-.09,0Z" fill="#79599f"/><path d="M31.87,134.39a17.11,17.11,0,0,0,2.93-.79A16.47,16.47,0,0,1,31.87,134.39Z" fill="#79599f"/><path d="M25.94,134.4l.18,0Z" fill="#79599f"/><path d="M30.2,134.6c-.34,0-.68,0-1,.05h.22C29.67,134.65,29.93,134.62,30.2,134.6Z" fill="#79599f"/><path d="M27.44,134.59l.37,0Z" fill="#79599f"/><path d="M45.43,125.82a.86.86,0,0,0-.4.13,1,1,0,0,0-.36,1.36c.09.17.2.32.3.48.18-.3.36-.6.53-.9A1,1,0,0,0,45.43,125.82Z" fill="#79599f"/><path d="M59.86,70.89a21.85,21.85,0,0,1,5.65-2.34.91.91,0,0,0-.4,0A21.38,21.38,0,0,0,49.89,84,21.76,21.76,0,0,1,59.86,70.89Z" fill="#79599f"/><path d="M51.32,90.87s0,0,0-.05a19,19,0,0,1,.5-6.27,2.09,2.09,0,0,0-.08.23,1,1,0,0,1-1.21.72,1,1,0,0,1-.73-1.1,20.88,20.88,0,0,0-.54,5.08,11.5,11.5,0,0,1,1.46.51A1,1,0,0,1,51.32,90.87Z" fill="#79599f"/><path d="M50.33,91.91h.09l.12,0a.78.78,0,0,1-.21,0Z" fill="#79599f"/><path d="M50,91.83a2.27,2.27,0,0,0,.25.06l.13,0a.78.78,0,0,0,.21,0,.83.83,0,0,0,.21-.06l.15-.1a.61.61,0,0,0,.15-.12.66.66,0,0,0,.12-.17.83.83,0,0,0,.09-.16,1.06,1.06,0,0,0,0-.19.68.68,0,0,0,0-.2,1,1,0,0,0-.59-.88,11.5,11.5,0,0,0-1.46-.51c0,.5,0,1,.07,1.52A1,1,0,0,0,50,91.83Z" fill="#79599f"/><path d="M49.81,84.29a.4.4,0,0,0,0,.11c0-.12,0-.24.08-.36A2.41,2.41,0,0,1,49.81,84.29Z" fill="#79599f"/><path d="M66.34,69.28a1,1,0,0,1-.71,1.22,19.36,19.36,0,0,0-13.8,14A19.86,19.86,0,0,1,90.4,94a.94.94,0,0,0,0,.41l.06-.21a1,1,0,0,1,1.94,0A21.86,21.86,0,0,0,65.51,68.55,1,1,0,0,1,66.34,69.28Z" fill="#79599f"/><path d="M91.65,93.45a1,1,0,0,0-1.19.76l-.06.21a1,1,0,0,0,.76.78.82.82,0,0,0,.22,0,1,1,0,0,0,1-.78c0-.08,0-.17.05-.25A1,1,0,0,0,91.65,93.45Z" fill="#79599f"/><path d="M50.54,85.5a1,1,0,0,0,1.21-.72,2.09,2.09,0,0,1,.08-.23,19.36,19.36,0,0,1,13.8-14,1,1,0,0,0-.12-2A21.78,21.78,0,0,0,49.89,84c0,.12,0,.24-.08.36A1,1,0,0,0,50.54,85.5Z" fill="#79599f"/><path d="M114,121.52a3.16,3.16,0,0,1-2.43-.14,5.07,5.07,0,0,1-2.43-6.65,7.24,7.24,0,0,1,4.16-3.82,7.92,7.92,0,0,1,.79-.24v-2a9.93,9.93,0,0,0-1.47.38,9.3,9.3,0,0,0-5.3,4.87,7.08,7.08,0,0,0,3.39,9.3,5.07,5.07,0,0,0,3.38.35v-2.07Z" fill="#79599f"/><path d="M119,111.22a11.38,11.38,0,0,1,5.47,15,16.21,16.21,0,0,1-3.37,4.79l0,0a1,1,0,0,1,1.29,1.47s.1,0,.14-.1a17.82,17.82,0,0,0,3.78-5.37,13.4,13.4,0,0,0-6.41-17.6,9.43,9.43,0,0,0-5.83-.77v2A7.42,7.42,0,0,1,119,111.22Z" fill="#79599f"/><path d="M117.52,120.75a1,1,0,0,0-.48-1.33,1,1,0,0,0-1.33.49,3.06,3.06,0,0,1-1.66,1.56v2.07a3.9,3.9,0,0,0,.59-.14A5.07,5.07,0,0,0,117.52,120.75Z" fill="#79599f"/><path d="M90.06,127.68l-.85-1-.73,1.07a1,1,0,0,1,.77-.44A1,1,0,0,1,90.06,127.68Z" fill="#79599f"/><path d="M66.9,139.7a1,1,0,0,0,1,1,26.83,26.83,0,0,0,21.51-10.78,25,25,0,0,0,17.92,7.58,26,26,0,0,0,6.72-.8v-2.07a23.5,23.5,0,0,1-6.72.87,23,23,0,0,1-17.27-7.82,1,1,0,0,0-.81-.34,1,1,0,0,0-.77.44A24.83,24.83,0,0,1,67.9,138.7,1,1,0,0,0,66.9,139.7Z" fill="#79599f"/><path d="M122.22,132.64a1.14,1.14,0,0,0,.15-.16,1,1,0,0,1-.56.19,1,1,0,0,1-.73-1.66l0,0a22.31,22.31,0,0,1-7,3.6v2.07A24.1,24.1,0,0,0,122.22,132.64Z" fill="#79599f"/><path d="M122.44,131.25a.87.87,0,1,0-.63,1.42,1,1,0,0,0,.56-.19A1,1,0,0,0,122.44,131.25Z" fill="#79599f"/></g></svg>