<svg xmlns="http://www.w3.org/2000/svg" width="335" height="335" viewBox="0 0 335 335"><title>app-type-advanced-gray</title><g id="ready-for-export"><path d="M138.75,26.89a3.9,3.9,0,1,0,.74,7.12,3.94,3.94,0,0,0,1.37-1.23,3.91,3.91,0,0,0-2.11-5.89Z" fill="none"/><path d="M219.14,105.89a3.89,3.89,0,1,0-3.45-6.43l3.45,2Z" fill="none"/><path d="M190.3,33.73a3.83,3.83,0,0,0,2.32.78,3.91,3.91,0,0,0,0-7.81,3.84,3.84,0,0,0-1.7.41,3.87,3.87,0,0,0-2.21,3.5,3.81,3.81,0,0,0,.33,1.55A4,4,0,0,0,190.3,33.73Z" fill="none"/><path d="M169.44,13a3.9,3.9,0,0,0-7.79-.19,1.11,1.11,0,0,0,0,.19,3.89,3.89,0,0,0,6.78,2.62,3.91,3.91,0,0,0,.93-1.78A3.86,3.86,0,0,0,169.44,13Z" fill="none"/><path d="M243.18,212a3.5,3.5,0,1,0,.9-.12A3.83,3.83,0,0,0,243.18,212Z" fill="none"/><path d="M216.18,165.49a3.93,3.93,0,0,0,2.19.67,3.87,3.87,0,0,0,3.46-2.14,3.79,3.79,0,0,0,.44-1.76,3.91,3.91,0,0,0-3.13-3.83v5.35Z" fill="none"/><path d="M169.36,72.71a3.55,3.55,0,0,0,.08-.73,3.9,3.9,0,0,0-7.79-.19,1.37,1.37,0,0,0,0,.19c0,.11,0,.23,0,.34l3.52-2Z" fill="none"/><path d="M186.71,30.61a5.92,5.92,0,0,1,.93-3.17l-17.5-10.78a5.89,5.89,0,0,1-9.73-.76l-18.1,11.15a5.82,5.82,0,0,1,1.21,3.56,5.92,5.92,0,0,1-4.94,5.82V85.64l.75-.44a1.48,1.48,0,0,1,1.39-1,1.35,1.35,0,0,1,.29,0l0,0a1,1,0,0,1,.48-.85l1.74-1a1,1,0,0,1,1,0l2.86-1.66a1,1,0,0,1,.49-.85l1.73-1a1,1,0,0,1,1,0l2.86-1.66a1,1,0,0,1,.49-.85l1.73-1a1,1,0,0,1,1,0l2.86-1.66a1,1,0,0,1,.48-.85h0a6.4,6.4,0,0,1-.07-.88,5.91,5.91,0,1,1,11.81,0,5.75,5.75,0,0,1-.28,1.77l.38.22a1,1,0,0,1,1.29-.27l1.73,1A1,1,0,0,1,175,76l2.65,1.52a1,1,0,0,1,1.28-.27l1.73,1a1,1,0,0,1,.41,1.25L183.67,81A1,1,0,0,1,185,80.7l1.73,1a1,1,0,0,1,.41,1.25l3.49,2V36.14A5.91,5.91,0,0,1,186.71,30.61Zm-40,6.71a1,1,0,0,1-.85.48,1,1,0,0,1-.53-.15l-1.7-1a1,1,0,0,1-.33-1.37,1,1,0,0,1,1.38-.33l1.7,1.05A1,1,0,0,1,146.75,37.32Zm6,3.68a1,1,0,0,1-.85.47,1,1,0,0,1-.53-.15l-1.7-1a1,1,0,0,1-.33-1.37,1,1,0,0,1,1.38-.33l1.7,1A1,1,0,0,1,152.71,41Zm6,3.67a1,1,0,0,1-.85.47,1,1,0,0,1-.53-.15l-1.7-1a1,1,0,1,1,1-1.71l1.7,1A1,1,0,0,1,158.67,44.67Zm9.09,2.95-1.7,1.05a1,1,0,0,1-.52.14,1,1,0,0,1-.85-.47.26.26,0,0,1,0-.08l0,.08a1,1,0,0,1-.85.47,1,1,0,0,1-.53-.14l-1.7-1.05a1,1,0,1,1,1-1.71L164.3,47a.92.92,0,0,1,.36.42A1,1,0,0,1,165,47l1.71-1.05a1,1,0,0,1,1,1.71Zm6-3.67L172,45a.9.9,0,0,1-.52.15,1,1,0,0,1-.53-1.85l1.71-1a1,1,0,0,1,1,1.71Zm6-3.68-1.7,1a1,1,0,0,1-.52.15,1,1,0,0,1-.53-1.85l1.71-1a1,1,0,0,1,1.37.33A1,1,0,0,1,179.68,40.27Zm6-3.67-1.7,1a1,1,0,0,1-.52.15,1,1,0,0,1-.53-1.85l1.71-1.05a1,1,0,0,1,1.37.33A1,1,0,0,1,185.64,36.6Z" fill="none"/><path d="M115.19,99.14a3.39,3.39,0,0,0-.42-.33,3.9,3.9,0,1,0-3.58,6.87v-4.23Z" fill="none"/><path d="M112.19,152.79a6.1,6.1,0,0,1,6.23-.1,6,6,0,0,1,3.1,5.26v.79l10.09,5.7a6,6,0,0,1,0,10.5l-.56.32,34.09,19.68,3.84-2.22,0,0a1,1,0,0,1,.36-1.37l1.74-1a1,1,0,0,1,1.36.37s0,0,0,0l2.61-1.51,0,0a1,1,0,0,1,.37-1.37l1.73-1a1,1,0,0,1,1.36.37s0,0,0,0l2.61-1.51,0,0a1,1,0,0,1,.37-1.37L182,184a1.48,1.48,0,0,1,1.48-1.47,1.47,1.47,0,0,1,1.39,1l2.29-1.33,0,0a1,1,0,0,1,.37-1.37l1.73-1a1,1,0,0,1,1.37.37.06.06,0,0,1,0,0l2.62-1.51,0,0a1,1,0,0,1,.36-1.37l1.73-1a1,1,0,0,1,1.37.37s0,0,0,0l2.61-1.51,0,0a1,1,0,0,1,.36-1.37l1.74-1a1,1,0,0,1,1.36.37s0,0,0,0l2.61-1.51,0,0a1,1,0,0,1,.37-1.37l1.73-1a1,1,0,0,1,1.37.37.06.06,0,0,0,0,0l2.61-1.51,0,0a1,1,0,0,1,.37-1.37l1.73-1,.13,0a5.85,5.85,0,0,1-1.18-3.52,5.92,5.92,0,0,1,4.91-5.82V107.82a5.91,5.91,0,0,1-4.69-5.78,5.78,5.78,0,0,1,.29-1.82L191.06,87.57a1,1,0,0,1-.41-1.24,1.22,1.22,0,0,1-.07-.38V85l-3.49-2s0,.08,0,.12a1,1,0,0,1-1.37.37l-1.73-1a1,1,0,0,1-.37-1.37l.09-.1L181,79.45s0,.08,0,.12a1,1,0,0,1-1.37.37l-1.73-1a1,1,0,0,1-.37-1.37s.06-.06.09-.1L175,76a.28.28,0,0,1,0,.12,1,1,0,0,1-1.36.37l-1.73-1a1,1,0,0,1-.37-1.37s.06-.06.08-.1l-.38-.22a5.9,5.9,0,0,1-10.85,1h-.11a1,1,0,0,1-.87-.5.91.91,0,0,1-.11-.51l-2.86,1.66a1,1,0,0,1,.38.35,1,1,0,0,1-.37,1.37l-1.73,1a1,1,0,0,1-1.49-.88l-2.86,1.66a.91.91,0,0,1,.38.35,1,1,0,0,1-.36,1.37l-1.73,1a1,1,0,0,1-1.49-.88l-2.86,1.66a.91.91,0,0,1,.38.35,1,1,0,0,1-.36,1.37l-1.74,1a1,1,0,0,1-.39.12,1.44,1.44,0,0,1,.08.46,1.48,1.48,0,1,1-2.95,0,1.61,1.61,0,0,1,.08-.48l-.75.44V86a1.06,1.06,0,0,1,0,.19l.06.06a1,1,0,0,1-.37,1.37l-20.4,11.78a5.82,5.82,0,0,1,.66,2.69,5.92,5.92,0,0,1-5.91,5.91l-.37,0V109a1,1,0,0,1-1,1h0v3h0a1,1,0,0,1,1,1v2a1,1,0,0,1-1,1h0v3h0a1,1,0,0,1,1,1v2a1,1,0,0,1-1,1h0v3h0a1,1,0,0,1,1,1v2a1,1,0,0,1-1,1h0v22.14l.18.11Zm65.16,15.44a1.48,1.48,0,1,1,1.48-1.48A1.48,1.48,0,0,1,177.35,168.23Zm29.5-39.93a3,3,0,1,1-3,3A3,3,0,0,1,206.85,128.3ZM145.53,97.36a1.48,1.48,0,1,1-1.48,1.48A1.48,1.48,0,0,1,145.53,97.36ZM130.87,110a3.54,3.54,0,0,1,4.77,4.23l20.69,12.08,7.91-4.56V98.36a3.54,3.54,0,1,1,2.35-.11,2,2,0,0,1-.35.1v23.52l8.32,4.8,21.62-13.14a3.58,3.58,0,1,1,.93,1.77L175,128.74v7.73l21.24,11.92a3.77,3.77,0,0,1,1.1-.73,3.56,3.56,0,1,1-1.94,4.65,3.53,3.53,0,0,1-.16-2.19L174.6,138.53l-8.33,4.81,0,24a3.51,3.51,0,0,1,2.29,2.05,3.56,3.56,0,1,1-4.64-2l.35-.1,0-23.86-8.44-4.87-17.91,10A3.55,3.55,0,1,1,136.8,147l18.53-10.37v-8.5L134.59,116a3.51,3.51,0,0,1-1,.66,3.56,3.56,0,1,1-2.7-6.59Z" fill="#cbd5e0" opacity="0.3"/><path d="M213.91,98.45h0L193.29,86.53h0Z" fill="#cbd5e0"/><path d="M141,84.22l0,0h0Z" fill="#cbd5e0"/><path d="M262.91,140.49a11.71,11.71,0,0,1-4.9,5.65,11.73,11.73,0,0,1,4.9,5.66,11.22,11.22,0,0,1,4.87-5.66A11.2,11.2,0,0,1,262.91,140.49Z" fill="none"/><path d="M107,186l1.33-.75a4,4,0,0,0,2-3.43l-3.63.61a5.82,5.82,0,0,1,.41,2.36A6,6,0,0,1,107,186Z" fill="none"/><path d="M124.61,281.56l-22.5-12.82a1,1,0,0,1-.5-.86V241.33a7.93,7.93,0,0,0-4.07-6.89l-13.72-7.73a1,1,0,0,1-.51-.88l.07-5a8,8,0,0,0-3.94-6.94l-13-7.62-14.56.06,10.69,6A9.93,9.93,0,0,1,67.64,221v4.52l13,7.2a9.94,9.94,0,0,1,5.14,8.67v26.17l22,12.63a10,10,0,0,1,5,8.6v7a.94.94,0,0,1-.06.29l5.57,3.08a4.07,4.07,0,0,0,4,0l6.34-3.56v-7.1A8,8,0,0,0,124.61,281.56Z" fill="none"/><path d="M106.81,281.88,84.28,269a1,1,0,0,1-.5-.87V241.34a7.94,7.94,0,0,0-4.11-6.92l-13.51-7.49a1,1,0,0,1-.52-.87V221A7.94,7.94,0,0,0,61.56,214l-13.72-7.65-.05,0-13.53.05,10.28,5.85a9.94,9.94,0,0,1,5,8.61v4.47l13.1,7.59a10,10,0,0,1,5,8.57v26l22.3,12.9a10,10,0,0,1,5,8.57l-.08,6.75s0,0,0,.09l5.87,3.29a4.08,4.08,0,0,0,4,0l6.14-3.5v-6.86A7.92,7.92,0,0,0,106.81,281.88Z" fill="none"/><path d="M226.08,64.39a8.08,8.08,0,0,1,2.79-3.24,8.08,8.08,0,0,1-2.79-3.24,8.48,8.48,0,0,1-2.82,3.24A8.48,8.48,0,0,1,226.08,64.39Z" fill="none"/><path d="M54.49,246.47H34a1,1,0,0,0,0,2H54.49a1,1,0,0,0,0-2Z" fill="#718096"/><path d="M295.49,246.47H268.86c-.47.67-1,1.34-1.44,2h28.07a1,1,0,0,0,0-2Z" fill="#718096"/><path d="M131,246.47a1,1,0,0,0,0,2h134c.5-.66,1-1.33,1.47-2Z" fill="#718096"/><path d="M140.72,84.2a1.48,1.48,0,0,0-1.39,1l1.68-1A1.35,1.35,0,0,0,140.72,84.2Z" fill="#cbd5e0"/><path d="M141.15,84.73a.94.94,0,0,1-.12-.49h0l-1.68,1a1.61,1.61,0,0,0-.08.48,1.48,1.48,0,1,0,2.95,0,1.44,1.44,0,0,0-.08-.46H142A1,1,0,0,1,141.15,84.73Z" fill="#cbd5e0"/><path d="M192.55,86.1l.74.43a1.48,1.48,0,0,0,.63-1.21,1.46,1.46,0,0,0-1.34-1.46V86A.8.8,0,0,1,192.55,86.1Z" fill="#cbd5e0"/><path d="M192.54,86.12l.74.42h0l-.74-.43Z" fill="#cbd5e0"/><circle cx="145.53" cy="98.84" r="1.48" fill="#cbd5e0"/><circle cx="110.93" cy="40.66" r="1.48" fill="#cbd5e0"/><circle cx="177.35" cy="166.75" r="1.48" fill="#cbd5e0"/><circle cx="206.85" cy="131.3" r="3" fill="#cbd5e0"/><circle cx="241.54" cy="134.42" r="1.48" fill="#cbd5e0"/><circle cx="248.99" cy="104.65" r="1.48" fill="#cbd5e0"/><path d="M184.2,185.05l-.75.43h.06A1.48,1.48,0,0,0,185,184a1.39,1.39,0,0,0-.09-.46l-.32.18A1,1,0,0,1,184.2,185.05Z" fill="#cbd5e0"/><path d="M183.51,182.53A1.48,1.48,0,0,0,182,184l1.17-.68a1,1,0,0,1,1.37.37.06.06,0,0,0,0,0l.32-.18A1.47,1.47,0,0,0,183.51,182.53Z" fill="#cbd5e0"/><circle cx="83.78" cy="111.75" r="3" fill="#cbd5e0"/><circle cx="64.42" cy="127.69" r="1.48" fill="#cbd5e0"/><circle cx="111.69" cy="80.09" r="1.48" fill="#cbd5e0"/><path d="M136.87,86.62a1,1,0,0,1-.24-.43l-20,11.55c.12.12.22.25.34.38Z" fill="#718096"/><path d="M137.58,87a.94.94,0,0,1-.71-.33L117,98.12a6.22,6.22,0,0,1,.87,1.23l20.4-11.78a1,1,0,0,0,.37-1.37l-.06-.06A1,1,0,0,1,137.58,87Z" fill="#718096"/><path d="M193.28,86.54a1.48,1.48,0,0,1-.83.26,1.12,1.12,0,0,1-.32,0,1,1,0,0,1-.55.19,1,1,0,0,1-.93-.62,1,1,0,0,0,.41,1.24L213,100.22a5.79,5.79,0,0,1,.94-1.77Z" fill="#718096"/><path d="M192.45,86.8a1.48,1.48,0,0,0,.83-.26l-.74-.42a.93.93,0,0,1-.41.64A1.12,1.12,0,0,0,192.45,86.8Z" fill="#718096"/><path d="M243,178.57v-.08a1,1,0,0,1,1-1,1,1,0,0,1,.67.26,1,1,0,0,0-.48-.8L223.58,165a5.88,5.88,0,0,1-1.24,1.6Z" fill="#718096"/><path d="M180.62,78.2l-1.73-1a1,1,0,0,0-1.28.27l3.42,2A1,1,0,0,0,180.62,78.2Z" fill="#718096"/><path d="M177.52,77.57a1,1,0,0,0,.37,1.37l1.73,1a1,1,0,0,0,1.37-.37s0-.08,0-.12l-3.42-2S177.54,77.53,177.52,77.57Z" fill="#718096"/><path d="M149.31,78.87l-1.73,1a1,1,0,0,0-.49.85l3.2-1.84A1,1,0,0,0,149.31,78.87Z" fill="#718096"/><path d="M147.21,81.23a1,1,0,0,0,1.37.37l1.73-1a1,1,0,0,0,.36-1.37.91.91,0,0,0-.38-.35l-3.2,1.84A1,1,0,0,0,147.21,81.23Z" fill="#718096"/><path d="M159.7,72.86h0a1,1,0,0,0-.48.85l.6-.35C159.78,73.2,159.73,73,159.7,72.86Z" fill="#718096"/><path d="M159.22,73.72a.91.91,0,0,0,.11.51,1,1,0,0,0,.87.5h.11a6.21,6.21,0,0,1-.49-1.35Z" fill="#718096"/><path d="M174.56,74.7l-1.73-1a1,1,0,0,0-1.29.27L175,76A1,1,0,0,0,174.56,74.7Z" fill="#718096"/><path d="M171.46,74.07a1,1,0,0,0,.37,1.37l1.73,1a1,1,0,0,0,1.36-.37.28.28,0,0,0,0-.12l-3.42-2S171.48,74,171.46,74.07Z" fill="#718096"/><path d="M186.68,81.7l-1.73-1a1,1,0,0,0-1.28.27l3.42,2A1,1,0,0,0,186.68,81.7Z" fill="#718096"/><path d="M183.58,81.07a1,1,0,0,0,.37,1.37l1.73,1a1,1,0,0,0,1.37-.37s0-.08,0-.12l-3.42-2Z" fill="#718096"/><path d="M155.37,75.37l-1.73,1a1,1,0,0,0-.49.85l3.21-1.84A1,1,0,0,0,155.37,75.37Z" fill="#718096"/><path d="M153.27,77.73a1,1,0,0,0,1.37.37l1.73-1a1,1,0,0,0,.37-1.37,1,1,0,0,0-.38-.35l-3.21,1.84A1,1,0,0,0,153.27,77.73Z" fill="#718096"/><path d="M143.25,82.37l-1.74,1a1,1,0,0,0-.48.85l3.2-1.84A1,1,0,0,0,143.25,82.37Z" fill="#718096"/><path d="M141,84.24a1.43,1.43,0,0,1,1.09,1,1,1,0,0,0,.39-.12l1.74-1a1,1,0,0,0,.36-1.37.91.91,0,0,0-.38-.35L141,84.22Z" fill="#718096"/><path d="M141,84.24a.94.94,0,0,0,.12.49,1,1,0,0,0,.86.5h.11A1.43,1.43,0,0,0,141,84.24Z" fill="#718096"/><path d="M188,182.69a1,1,0,0,0,.5-.14l1.73-1a1,1,0,0,0,.38-1.32l-3.45,2A1,1,0,0,0,188,182.69Z" fill="#718096"/><path d="M189.26,179.82l-1.73,1a1,1,0,0,0-.37,1.37l0,0,3.45-2a.06.06,0,0,0,0,0A1,1,0,0,0,189.26,179.82Z" fill="#718096"/><path d="M194.09,179.19a1,1,0,0,0,.5-.14l1.73-1a1,1,0,0,0,.39-1.32l-3.45,2A1,1,0,0,0,194.09,179.19Z" fill="#718096"/><path d="M195.32,176.32l-1.73,1a1,1,0,0,0-.36,1.37l0,0,3.45-2s0,0,0,0A1,1,0,0,0,195.32,176.32Z" fill="#718096"/><path d="M200.16,175.69a1,1,0,0,0,.49-.14l1.74-1a1,1,0,0,0,.38-1.32l-3.45,2A1,1,0,0,0,200.16,175.69Z" fill="#718096"/><path d="M201.39,172.82l-1.74,1a1,1,0,0,0-.36,1.37l0,0,3.45-2s0,0,0,0A1,1,0,0,0,201.39,172.82Z" fill="#718096"/><path d="M175.91,189.69a1,1,0,0,0,.5-.14l1.73-1a1,1,0,0,0,.38-1.32l-3.45,2A1,1,0,0,0,175.91,189.69Z" fill="#718096"/><path d="M177.14,186.82l-1.73,1a1,1,0,0,0-.37,1.37l0,0,3.45-2s0,0,0,0A1,1,0,0,0,177.14,186.82Z" fill="#718096"/><path d="M182.4,185l-1.27.73a1,1,0,0,0,.84.47,1,1,0,0,0,.5-.14l1-.57A1.45,1.45,0,0,1,182.4,185Z" fill="#718096"/><path d="M182,184h0l-.56.32a1,1,0,0,0-.37,1.37l0,0,1.27-.73A1.47,1.47,0,0,1,182,184Z" fill="#718096"/><path d="M169.84,193.19a1,1,0,0,0,.5-.14l1.74-1a1,1,0,0,0,.38-1.32l-3.45,2A1,1,0,0,0,169.84,193.19Z" fill="#718096"/><path d="M171.08,190.32l-1.74,1a1,1,0,0,0-.36,1.37l0,0,3.45-2s0,0,0,0A1,1,0,0,0,171.08,190.32Z" fill="#718096"/><path d="M211.44,168.22a1,1,0,0,0,.84.47,1,1,0,0,0,.5-.14l1.73-1a1,1,0,0,0,.42-.51,7,7,0,0,1-.59-.49Z" fill="#718096"/><path d="M213.64,165.78l-.13,0-1.73,1a1,1,0,0,0-.37,1.37l0,0,2.9-1.67A6.4,6.4,0,0,1,213.64,165.78Z" fill="#718096"/><path d="M206.22,172.19a1,1,0,0,0,.5-.14l1.73-1a1,1,0,0,0,.38-1.32l-3.45,2A1,1,0,0,0,206.22,172.19Z" fill="#718096"/><path d="M207.45,169.32l-1.73,1a1,1,0,0,0-.37,1.37l0,0,3.45-2a.06.06,0,0,1,0,0A1,1,0,0,0,207.45,169.32Z" fill="#718096"/><path d="M184.58,183.73,182.4,185a1.45,1.45,0,0,0,1,.49l.75-.43A1,1,0,0,0,184.58,183.73Z" fill="#718096"/><path d="M182.4,185l2.18-1.26a.06.06,0,0,1,0,0,1,1,0,0,0-1.37-.37L182,184h0A1.47,1.47,0,0,0,182.4,185Z" fill="#718096"/><path d="M165.53,66.07a5.91,5.91,0,0,0-5.9,5.91,6.4,6.4,0,0,0,.07.88l1-.55c0-.11,0-.22,0-.33a4.91,4.91,0,1,1,9.81,0,5.17,5.17,0,0,1-.18,1.25l.9.52a5.75,5.75,0,0,0,.28-1.77A5.92,5.92,0,0,0,165.53,66.07Z" fill="#718096"/><path d="M165.53,76.88a4.88,4.88,0,0,1-4.3-2.59l-.53.31a1.1,1.1,0,0,1-.39.12,5.9,5.9,0,0,0,10.85-1l-.9-.52A4.89,4.89,0,0,1,165.53,76.88Z" fill="#718096"/><path d="M160.75,72.84a4.89,4.89,0,0,1-.09-.53l-1,.55c0,.18.08.34.12.51Z" fill="#718096"/><path d="M161.23,74.29a5.15,5.15,0,0,1-.48-1.45l-.93.53a6.21,6.21,0,0,0,.49,1.35,1.1,1.1,0,0,0,.39-.12Z" fill="#718096"/><path d="M161.65,71.79a3.9,3.9,0,0,1,7.79.19,3.55,3.55,0,0,1-.08.73l.9.52a5.17,5.17,0,0,0,.18-1.25,4.91,4.91,0,1,0-9.81,0c0,.11,0,.22,0,.33l.77-.44A1.43,1.43,0,0,1,161.65,71.79Z" fill="#718096"/><path d="M165.53,75.88a3.87,3.87,0,0,1-3.43-2.09l-.87.5a4.88,4.88,0,0,0,9-1.06l-.9-.52A3.89,3.89,0,0,1,165.53,75.88Z" fill="#718096"/><path d="M161.65,72.32c0-.11,0-.23,0-.34a1.37,1.37,0,0,1,0-.19,1.43,1.43,0,0,0-.22.08l-.77.44a4.89,4.89,0,0,0,.09.53Z" fill="#718096"/><path d="M161.65,72.32l-.9.52a5.15,5.15,0,0,0,.48,1.45l.87-.5A3.88,3.88,0,0,1,161.65,72.32Z" fill="#718096"/><path d="M187.64,27.44a5.81,5.81,0,0,1,1.38-1.5l-17.91-11a6,6,0,0,1-1,1.75Z" fill="#718096"/><path d="M142.31,27.05l18.1-11.15a5.81,5.81,0,0,1-.69-1.92L140.79,25.64A5.67,5.67,0,0,1,142.31,27.05Z" fill="#718096"/><path d="M158.34,43.29l-1.7-1a1,1,0,1,0-1,1.71l1.7,1a1,1,0,0,0,.53.15,1,1,0,0,0,.52-1.85Z" fill="#718096"/><path d="M146.42,36l-1.7-1.05a1,1,0,0,0-1.38.33,1,1,0,0,0,.33,1.37l1.7,1a1,1,0,0,0,.53.15,1,1,0,0,0,.52-1.85Z" fill="#718096"/><path d="M164.66,47.38a.92.92,0,0,0-.36-.42l-1.7-1.05a1,1,0,1,0-1,1.71l1.7,1.05a1,1,0,0,0,.53.14,1,1,0,0,0,.85-.47l0-.08A.94.94,0,0,1,164.66,47.38Z" fill="#718096"/><path d="M152.38,39.62l-1.7-1a1,1,0,0,0-1.38.33,1,1,0,0,0,.33,1.37l1.7,1a1,1,0,0,0,.53.15,1,1,0,0,0,.52-1.85Z" fill="#718096"/><path d="M184.6,34.9,182.89,36a1,1,0,0,0,.53,1.85,1,1,0,0,0,.52-.15l1.7-1a1,1,0,0,0,.33-1.37A1,1,0,0,0,184.6,34.9Z" fill="#718096"/><path d="M172.68,42.24l-1.71,1a1,1,0,0,0,.53,1.85A.9.9,0,0,0,172,45l1.7-1a1,1,0,0,0-1-1.71Z" fill="#718096"/><path d="M178.64,38.57l-1.71,1a1,1,0,0,0,.53,1.85,1,1,0,0,0,.52-.15l1.7-1A1,1,0,0,0,180,38.9,1,1,0,0,0,178.64,38.57Z" fill="#718096"/><path d="M166.72,45.91,165,47a1,1,0,0,0-.35.42,1,1,0,0,1,0,.88.26.26,0,0,0,0,.08,1,1,0,0,0,.85.47,1,1,0,0,0,.52-.14l1.7-1.05a1,1,0,0,0-1-1.71Z" fill="#718096"/><path d="M164.66,47.38a.94.94,0,0,0,0,.88A1,1,0,0,0,164.66,47.38Z" fill="#718096"/><path d="M165.53,18.88a5.89,5.89,0,0,0,4.61-2.22l-.87-.54a4.86,4.86,0,0,1-8-.75l-.86.53A5.9,5.9,0,0,0,165.53,18.88Z" fill="#718096"/><path d="M160.63,13a4.91,4.91,0,1,1,9.59,1.38l.89.55A5.9,5.9,0,1,0,159.63,13a5.55,5.55,0,0,0,.09,1l.95-.59C160.66,13.25,160.63,13.12,160.63,13Z" fill="#718096"/><path d="M169.27,16.12l.87.54a6,6,0,0,0,1-1.75l-.89-.55A4.92,4.92,0,0,1,169.27,16.12Z" fill="#718096"/><path d="M161.27,15.37a4.92,4.92,0,0,1-.6-2l-.95.59a5.81,5.81,0,0,0,.69,1.92Z" fill="#718096"/><path d="M165.53,17.88a4.87,4.87,0,0,0,3.74-1.76l-.86-.52a3.87,3.87,0,0,1-6.29-.76l-.85.53A4.9,4.9,0,0,0,165.53,17.88Z" fill="#718096"/><path d="M165.53,9.07A3.91,3.91,0,0,1,169.44,13a3.86,3.86,0,0,1-.1.84l.88.54a4.86,4.86,0,0,0,.22-1.38,4.91,4.91,0,1,0-9.81,0c0,.14,0,.27,0,.41l1-.6A3.89,3.89,0,0,1,165.53,9.07Z" fill="#718096"/><path d="M168.41,15.6l.86.52a4.92,4.92,0,0,0,.95-1.76l-.88-.54A3.91,3.91,0,0,1,168.41,15.6Z" fill="#718096"/><path d="M161.63,13a1.11,1.11,0,0,1,0-.19l-1,.6a4.92,4.92,0,0,0,.6,2l.85-.53A3.87,3.87,0,0,1,161.63,13Z" fill="#718096"/><path d="M110.43,106.43a4.89,4.89,0,1,1,5.26-8.15l.93-.54a5.9,5.9,0,1,0-6.41,9.7V107A1,1,0,0,1,110.43,106.43Z" fill="#718096"/><path d="M117.49,102a4.91,4.91,0,0,1-4.91,4.91c-.13,0-.27,0-.4,0a.61.61,0,0,1,0,.13v.89l.37,0a5.92,5.92,0,0,0,5.91-5.91,5.82,5.82,0,0,0-.66-2.69l-.88.51A4.85,4.85,0,0,1,117.49,102Z" fill="#718096"/><path d="M116.05,98.64l.91-.52c-.12-.13-.22-.26-.34-.38l-.93.54C115.82,98.39,115.93,98.52,116.05,98.64Z" fill="#718096"/><path d="M116.05,98.64a4.7,4.7,0,0,1,.9,1.22l.88-.51a6.22,6.22,0,0,0-.87-1.23Z" fill="#718096"/><path d="M111.19,106.05v-.37a3.9,3.9,0,1,1,3.58-6.87l.92-.53a4.89,4.89,0,1,0-5.26,8.15A1,1,0,0,1,111.19,106.05Z" fill="#718096"/><path d="M116.49,102a3.91,3.91,0,0,1-3.91,3.91,3.78,3.78,0,0,1-1.39-.27v.37h0a1,1,0,0,1,1,.87c.13,0,.27,0,.4,0a4.91,4.91,0,0,0,4.91-4.91,4.85,4.85,0,0,0-.54-2.18l-.86.49A3.89,3.89,0,0,1,116.49,102Z" fill="#718096"/><path d="M115.19,99.14l.86-.5c-.12-.12-.23-.25-.36-.36l-.92.53A3.39,3.39,0,0,1,115.19,99.14Z" fill="#718096"/><path d="M116.09,100.35l.86-.49a4.7,4.7,0,0,0-.9-1.22l-.86.5A4.11,4.11,0,0,1,116.09,100.35Z" fill="#718096"/><path d="M218.58,97.14a4.89,4.89,0,0,1,.75,9.73.53.53,0,0,1,0,.17v.85a5.9,5.9,0,1,0-5.45-9.45l.89.51A4.86,4.86,0,0,1,218.58,97.14Z" fill="#718096"/><path d="M214.8,99h0l-.89-.51h0Z" fill="#718096"/><path d="M217.42,106.79a4.89,4.89,0,0,1-3.74-4.75,4.7,4.7,0,0,1,.2-1.3l-.91-.52a5.78,5.78,0,0,0-.29,1.82,5.91,5.91,0,0,0,4.69,5.78V107A1.23,1.23,0,0,1,217.42,106.79Z" fill="#718096"/><path d="M214.8,99l-.89-.51a5.79,5.79,0,0,0-.94,1.77l.91.52A4.87,4.87,0,0,1,214.8,99Z" fill="#718096"/><path d="M218.59,98.14a3.89,3.89,0,0,1,.55,7.75v.56a.94.94,0,0,1,.19.42A4.89,4.89,0,1,0,214.81,99l.88.51A3.87,3.87,0,0,1,218.59,98.14Z" fill="#718096"/><path d="M218.37,106a1,1,0,0,1,.77.41v-.56a3.31,3.31,0,0,1-.55.06,3.91,3.91,0,0,1-3.91-3.91,4.15,4.15,0,0,1,.08-.79l-.88-.51a4.7,4.7,0,0,0-.2,1.3,4.89,4.89,0,0,0,3.74,4.75A1,1,0,0,1,218.37,106Z" fill="#718096"/><path d="M215.69,99.46l-.88-.51h0l.87.51Z" fill="#718096"/><path d="M214.76,101.25a3.88,3.88,0,0,1,.91-1.78L214.8,99a4.87,4.87,0,0,0-.92,1.78Z" fill="#718096"/><path d="M218.37,167.16a4.87,4.87,0,0,1-3.11-1.14l-.36.21a1,1,0,0,1,0,.81,5.87,5.87,0,0,0,7.41-.42l-.93-.54A4.86,4.86,0,0,1,218.37,167.16Z" fill="#718096"/><path d="M214.88,166.19l0,0,.36-.21a4.88,4.88,0,0,1,2.19-8.58,1,1,0,0,1-.08-.4v-.6a5.92,5.92,0,0,0-4.91,5.82,5.85,5.85,0,0,0,1.18,3.52A1,1,0,0,1,214.88,166.19Z" fill="#718096"/><path d="M219.28,157.44a4.91,4.91,0,0,1,4,4.82,4.84,4.84,0,0,1-.57,2.25l.88.51a5.82,5.82,0,0,0,.69-2.76,5.91,5.91,0,0,0-4.9-5.82v.6A.87.87,0,0,1,219.28,157.44Z" fill="#718096"/><path d="M221.41,166.08l.93.54a5.88,5.88,0,0,0,1.24-1.6l-.88-.51A5,5,0,0,1,221.41,166.08Z" fill="#718096"/><path d="M214.9,166.23l-.56.32a7,7,0,0,0,.59.49A1,1,0,0,0,214.9,166.23Z" fill="#718096"/><path d="M214.34,166.55l.56-.32,0,0a1,1,0,0,0-1.24-.41A6.4,6.4,0,0,0,214.34,166.55Z" fill="#718096"/><path d="M219.14,158.43a3.91,3.91,0,0,1,3.13,3.83,3.79,3.79,0,0,1-.44,1.76l.87.49a4.84,4.84,0,0,0,.57-2.25,4.91,4.91,0,0,0-4-4.82.68.68,0,0,1-.14.23Z" fill="#718096"/><path d="M218.37,166.16a3.93,3.93,0,0,1-2.19-.67l-.92.53a4.82,4.82,0,0,0,6.15.06l-.94-.54A3.89,3.89,0,0,1,218.37,166.16Z" fill="#718096"/><path d="M214.46,162.26a3.89,3.89,0,0,1,4.68-3.83v-.76a1,1,0,0,1-.77.37,1,1,0,0,1-.92-.6,4.88,4.88,0,0,0-2.19,8.58l.92-.53A3.93,3.93,0,0,1,214.46,162.26Z" fill="#718096"/><path d="M220.47,165.54l.94.54a5,5,0,0,0,1.29-1.57l-.87-.49A3.91,3.91,0,0,1,220.47,165.54Z" fill="#718096"/><circle cx="172.52" cy="216.12" r="3" fill="#cbd5e0"/><path d="M174.49,311,168,314.62a4.22,4.22,0,0,1-4.13,0L157.45,311a1,1,0,0,0-1.37.38,1,1,0,0,0,.38,1.36l6.39,3.64a6.21,6.21,0,0,0,6.1,0l6.52-3.66a1,1,0,1,0-1-1.74Z" fill="#718096"/><path d="M244.25,295l-6.65,3.73a4.24,4.24,0,0,1-4.13,0l-6.4-3.65a1,1,0,0,0-1,0l-6.62,3.65a4.15,4.15,0,0,1-4.08,0L208.84,295a1,1,0,0,0-1,1.75l6.56,3.68a6.17,6.17,0,0,0,6,0l6.12-3.38,5.91,3.36a6.21,6.21,0,0,0,6.1,0l6.65-3.73a1,1,0,1,0-1-1.74Z" fill="#718096"/><path d="M214.61,281l5.83,3.65a5.39,5.39,0,0,0,5.58.1l7-4.06a1,1,0,0,0-1-1.73L225,283a3.4,3.4,0,0,1-3.52-.06l-6.33-4a1,1,0,0,0-1,0l-6.66,3.73a4.24,4.24,0,0,1-4.13,0L197,279.06a1,1,0,0,0-1,0l-6.62,3.65a4.15,4.15,0,0,1-4.08,0L178.73,279a1,1,0,0,0-1,1.75l6.56,3.68a6.17,6.17,0,0,0,6,0l6.12-3.38,5.91,3.36a6.22,6.22,0,0,0,6.1,0Z" fill="#718096"/><path d="M129.13,296.57a1,1,0,0,1-.5-.84v-.2l-6.34,3.56a4.07,4.07,0,0,1-4,0L112.76,296a1,1,0,0,1-.94.71,1,1,0,0,1-1-1v-.13l-6.14,3.5a4.08,4.08,0,0,1-4,0l-5.87-3.29a1,1,0,0,1-2-.09v0l-4.32,2.36a1,1,0,1,0,1,1.76l4.24-2.32,6,3.36a6.08,6.08,0,0,0,6,0l5.75-3.27,6,3.29a6,6,0,0,0,5.89,0l6.39-3.59a1.3,1.3,0,0,0,.18-.15l-.37-.21A1,1,0,0,1,129.13,296.57Z" fill="#718096"/><path d="M182.32,295.1l-6.83,4a3.3,3.3,0,0,1-3.4-.06l-6.17-3.87a1,1,0,0,0-1,0l-6.48,3.63a4.05,4.05,0,0,1-4,0l-5.86-3.33v.33a1,1,0,0,1-2,0v-.19l-5.79,3.2a4.07,4.07,0,0,1-4,0l-6.19-3.48v.48a36.33,36.33,0,0,0-.8,1.37l6,3.37a6,6,0,0,0,5.89,0l6-3.29,5.74,3.27a6.08,6.08,0,0,0,6,0l6-3.35,5.67,3.55a5.31,5.31,0,0,0,5.47.1l6.83-4a1,1,0,0,0,.36-1.36A1,1,0,0,0,182.32,295.1Z" fill="#718096"/><path d="M129.63,296.73a1,1,0,0,1-.5-.16,1,1,0,0,0,.33.32l.37.21a1,1,0,0,0,.3-.53A1,1,0,0,1,129.63,296.73Z" fill="#718096"/><path d="M219.14,156.42l.23,0V107.89l-.23,0Z" fill="#718096"/><path d="M219.14,156.42V107.91a5.09,5.09,0,0,1-.55,0,6.08,6.08,0,0,1-1.22-.13v48.62a6.64,6.64,0,0,1,1-.09A6.48,6.48,0,0,1,219.14,156.42Z" fill="#718096"/><path d="M219.33,106.87l-.19,0v1l.23,0V107A.53.53,0,0,0,219.33,106.87Z" fill="#718096"/><path d="M219.14,107.91v-1a3.31,3.31,0,0,1-.56.06,4.51,4.51,0,0,1-1.16-.16,1.23,1.23,0,0,0,0,.25v.78a6.08,6.08,0,0,0,1.22.13A5.09,5.09,0,0,0,219.14,107.91Z" fill="#718096"/><path d="M219.14,106.89l.19,0a.94.94,0,0,0-.19-.42Z" fill="#718096"/><path d="M218.37,106a1,1,0,0,0-1,.75,4.51,4.51,0,0,0,1.16.16,3.31,3.31,0,0,0,.56-.06v-.44A1,1,0,0,0,218.37,106Z" fill="#718096"/><path d="M219.14,157.43h.14a.87.87,0,0,0,.09-.4v-.6l-.23,0Z" fill="#718096"/><path d="M217.45,157.44a5.62,5.62,0,0,1,.92-.09,4.9,4.9,0,0,1,.77.08v-1a6.48,6.48,0,0,0-.77-.07,6.64,6.64,0,0,0-1,.09v.6A1,1,0,0,0,217.45,157.44Z" fill="#718096"/><path d="M219.28,157.44h-.14v.24A.68.68,0,0,0,219.28,157.44Z" fill="#718096"/><path d="M217.45,157.44a1,1,0,0,0,.92.6,1,1,0,0,0,.77-.37v-.24a4.9,4.9,0,0,0-.77-.08A5.62,5.62,0,0,0,217.45,157.44Z" fill="#718096"/><path d="M243.73,178.81a1,1,0,0,1-.5-.13l-.19-.11v31.37a5.62,5.62,0,0,1,2,0V178.49a1,1,0,0,0-.33-.74.92.92,0,0,1-.11.56A1,1,0,0,1,243.73,178.81Z" fill="#718096"/><path d="M243,178.49v.08l.19.11a1,1,0,0,0,1.37-.37.92.92,0,0,0,.11-.56,1,1,0,0,0-.67-.26A1,1,0,0,0,243,178.49Z" fill="#718096"/><path d="M110.21,121v2a1,1,0,0,0,1,1v-4A1,1,0,0,0,110.21,121Z" fill="#718096"/><path d="M112.21,123v-2a1,1,0,0,0-1-1h0v4h0A1,1,0,0,0,112.21,123Z" fill="#718096"/><path d="M110.21,107.44V109a1,1,0,0,0,1,1v-2.26A6.29,6.29,0,0,1,110.21,107.44Z" fill="#718096"/><path d="M112.21,109v-1.11a6.77,6.77,0,0,1-1-.15V110h0A1,1,0,0,0,112.21,109Z" fill="#718096"/><path d="M110.21,128v2a1,1,0,0,0,1,1v-4A1,1,0,0,0,110.21,128Z" fill="#718096"/><path d="M112.21,130v-2a1,1,0,0,0-1-1h0v4h0A1,1,0,0,0,112.21,130Z" fill="#718096"/><path d="M110.21,114v2a1,1,0,0,0,1,1v-4A1,1,0,0,0,110.21,114Z" fill="#718096"/><path d="M112.21,116v-2a1,1,0,0,0-1-1h0v4h0A1,1,0,0,0,112.21,116Z" fill="#718096"/><path d="M111.19,106.72a5.4,5.4,0,0,1-.76-.29,1,1,0,0,0-.22.61v.4a6.29,6.29,0,0,0,1,.34Z" fill="#718096"/><path d="M112.18,106.91a5.41,5.41,0,0,1-1-.19v1.06a6.77,6.77,0,0,0,1,.15V107A.61.61,0,0,0,112.18,106.91Z" fill="#718096"/><path d="M110.43,106.43a5.4,5.4,0,0,0,.76.29v-.67A1,1,0,0,0,110.43,106.43Z" fill="#718096"/><path d="M111.21,106h0v.67a5.41,5.41,0,0,0,1,.19A1,1,0,0,0,111.21,106Z" fill="#718096"/><path d="M192.62,25.7a4.91,4.91,0,0,1,0,9.81h-.16a.94.94,0,0,1,.12.45v.56h0A5.91,5.91,0,1,0,189,25.94l.92.56A4.91,4.91,0,0,1,192.62,25.7Z" fill="#718096"/><path d="M190.58,36.14V36a1,1,0,0,1,.36-.75,4.88,4.88,0,0,1-1.75-1.09,1,1,0,0,1-.66-.46.92.92,0,0,1-.13-.58,4.8,4.8,0,0,1,.09-5.1l-.85-.53a5.88,5.88,0,0,0,2.94,8.7Z" fill="#718096"/><path d="M187.64,27.44l.85.53a5,5,0,0,1,1.45-1.47l-.92-.56A5.81,5.81,0,0,0,187.64,27.44Z" fill="#718096"/><path d="M188.53,33.65a1,1,0,0,0,.66.46,4.68,4.68,0,0,1-.79-1A.92.92,0,0,0,188.53,33.65Z" fill="#718096"/><path d="M188.4,33.07a1,1,0,0,1,.45-.79l.19-.12a3.81,3.81,0,0,1-.33-1.55,3.91,3.91,0,0,1,.63-2.12l-.85-.52a4.8,4.8,0,0,0-.09,5.1Z" fill="#718096"/><path d="M192.62,26.7a3.91,3.91,0,0,1,0,7.81,3.83,3.83,0,0,1-2.32-.78l-.4.25a1,1,0,0,1-.52.15l-.19,0a4.88,4.88,0,0,0,1.75,1.09,1,1,0,0,1,.64-.25,1,1,0,0,1,.88.55h.16a4.91,4.91,0,1,0-2.68-9l1,.61A3.84,3.84,0,0,1,192.62,26.7Z" fill="#718096"/><path d="M190.92,27.11l-1-.61A5,5,0,0,0,188.49,28l.85.52A3.9,3.9,0,0,1,190.92,27.11Z" fill="#718096"/><path d="M189.9,34l.4-.25A4,4,0,0,1,189,32.16l-.19.12a1,1,0,0,0-.45.79,4.68,4.68,0,0,0,.79,1l.19,0A1,1,0,0,0,189.9,34Z" fill="#718096"/><path d="M136.75,35.42a4.9,4.9,0,1,1,3.06-9.18l1-.6a5.9,5.9,0,1,0-4.21,10.77V36A1,1,0,0,1,136.75,35.42Z" fill="#718096"/><path d="M143.52,30.61a5.82,5.82,0,0,0-1.21-3.56l-.86.53a4.86,4.86,0,0,1-3,7.85,1,1,0,0,1,.17.52v.48A5.92,5.92,0,0,0,143.52,30.61Z" fill="#718096"/><path d="M141.45,27.58l.86-.53a5.67,5.67,0,0,0-1.52-1.41l-1,.6A4.84,4.84,0,0,1,141.45,27.58Z" fill="#718096"/><path d="M142.52,30.61a4.88,4.88,0,0,0-1.07-3l-.86.53a3.86,3.86,0,0,1,.27,4.67,1,1,0,0,1-.92,1.35.89.89,0,0,1-.45-.12,3.84,3.84,0,0,1-1.87.5,3.91,3.91,0,1,1,1.13-7.62l1.06-.65a4.89,4.89,0,1,0-3.06,9.18,1,1,0,0,1,.83-.47,1,1,0,0,1,.83.48A4.89,4.89,0,0,0,142.52,30.61Z" fill="#718096"/><path d="M140.59,28.11l.86-.53a4.84,4.84,0,0,0-1.64-1.34l-1.06.65A3.86,3.86,0,0,1,140.59,28.11Z" fill="#718096"/><path d="M139.49,34a.89.89,0,0,0,.45.12,1,1,0,0,0,.92-1.35A3.94,3.94,0,0,1,139.49,34Z" fill="#718096"/><path d="M190.58,85l.4.23a1.48,1.48,0,0,1,1.47-1.35l.13,0V36.51a5.77,5.77,0,0,1-2-.37Z" fill="#718096"/><path d="M191.07,85.85a1.51,1.51,0,0,1-.1-.53s0-.08,0-.13l-.4-.23v1a1.22,1.22,0,0,0,.07.38.69.69,0,0,1,0-.13A1,1,0,0,1,191.07,85.85Z" fill="#718096"/><path d="M191,85.19l1.57.91a.8.8,0,0,0,0-.15V83.86l-.13,0A1.48,1.48,0,0,0,191,85.19Z" fill="#718096"/><path d="M191.07,85.85a1,1,0,0,1,1,0l.48.28v0L191,85.19s0,.09,0,.13A1.51,1.51,0,0,0,191.07,85.85Z" fill="#718096"/><path d="M191.58,87a1,1,0,0,0,.55-.19,1.46,1.46,0,0,1-1.06-.91,1,1,0,0,0-.37.35.69.69,0,0,0,0,.13A1,1,0,0,0,191.58,87Z" fill="#718096"/><path d="M191.07,85.85a1.46,1.46,0,0,0,1.06.91.93.93,0,0,0,.41-.64l-.48-.28A1,1,0,0,0,191.07,85.85Z" fill="#718096"/><path d="M192.46,35.5a5,5,0,0,1-1.52-.3,1,1,0,0,0-.36.75v.19a5.77,5.77,0,0,0,2,.37V36A.94.94,0,0,0,192.46,35.5Z" fill="#718096"/><path d="M191.58,35a1,1,0,0,0-.64.25,5,5,0,0,0,1.52.3A1,1,0,0,0,191.58,35Z" fill="#718096"/><path d="M138.21,85.85l.37-.21V36.43a6.22,6.22,0,0,1-1,.08,5.91,5.91,0,0,1-1-.1V86a1,1,0,0,0,0,.24l.6-.35A1,1,0,0,1,138.21,85.85Z" fill="#718096"/><path d="M138.54,86.14a1.06,1.06,0,0,0,0-.19v-.31l-.37.21A.91.91,0,0,1,138.54,86.14Z" fill="#718096"/><path d="M138.21,85.85a1,1,0,0,0-1,0l-.6.35a1,1,0,0,0,.24.43Z" fill="#718096"/><path d="M136.87,86.62a.94.94,0,0,0,.71.33,1,1,0,0,0,1-.81.91.91,0,0,0-.33-.29Z" fill="#718096"/><path d="M138.58,36.43V36a1,1,0,0,0-.17-.52,5.16,5.16,0,0,1-.79.08,4.93,4.93,0,0,1-.87-.09,1,1,0,0,0-.17.53v.46a5.91,5.91,0,0,0,1,.1A6.22,6.22,0,0,0,138.58,36.43Z" fill="#718096"/><path d="M137.58,35a1,1,0,0,0-.83.47,4.93,4.93,0,0,0,.87.09,5.16,5.16,0,0,0,.79-.08A1,1,0,0,0,137.58,35Z" fill="#718096"/><path d="M132.31,151.61a1,1,0,0,1-.48-1.88l5-2.78a3.57,3.57,0,1,0,1.12,1.66l-5.12,2.87A1,1,0,0,1,132.31,151.61Z" fill="#718096"/><path d="M155.33,128.08v-1.15l1-.58-20.69-12.08a3.57,3.57,0,0,1-1,1.7Z" fill="#718096"/><path d="M175,128.74l22.1-13.44a3.4,3.4,0,0,1-.73-1.11,3.13,3.13,0,0,1-.2-.66l-21.62,13.14.45.26Z" fill="#718096"/><path d="M174.6,138.53l20.65,11.59a3.65,3.65,0,0,1,1-1.73L175,136.47v1.83Z" fill="#718096"/><path d="M155.33,136.58,136.8,147a3.54,3.54,0,0,1,1,1.39,2.76,2.76,0,0,1,.08.27l17.91-10-.5-.29Z" fill="#718096"/><path d="M136.8,147l-5,2.78a1,1,0,0,0,.48,1.88,1,1,0,0,0,.49-.13l5.12-2.87a2.76,2.76,0,0,0-.08-.27A3.54,3.54,0,0,0,136.8,147Z" fill="#718096"/><path d="M166.24,121.87V98.35a3.58,3.58,0,0,1-2,0v23.43l.93-.54Z" fill="#718096"/><path d="M164.27,143.46l0,23.86a3.49,3.49,0,0,1,2,0l0-24-1.1.64Z" fill="#718096"/><path d="M165.24,93.23a1,1,0,0,1,1,1v0l.16,0a1.48,1.48,0,1,1,0,3l-.16,0v1.15a2,2,0,0,0,.35-.1,3.59,3.59,0,1,0-2.35.11V94.23A1,1,0,0,1,165.24,93.23Z" fill="#718096"/><path d="M167.88,95.74a1.48,1.48,0,0,0-1.48-1.48l-.16,0V97.2l.16,0A1.48,1.48,0,0,0,167.88,95.74Z" fill="#718096"/><path d="M166.24,98.35V97.2a1.47,1.47,0,0,1,0-2.92v0a1,1,0,0,0-2,0v4.13A3.58,3.58,0,0,0,166.24,98.35Z" fill="#718096"/><path d="M164.92,95.74a1.47,1.47,0,0,0,1.32,1.46V94.28A1.47,1.47,0,0,0,164.92,95.74Z" fill="#718096"/><path d="M199,113a1,1,0,0,1-.34,1.37l-1.58,1a3.54,3.54,0,1,0-.93-1.77l1.47-.9A1,1,0,0,1,199,113Z" fill="#718096"/><path d="M197.11,115.3l1.58-1a1,1,0,1,0-1-1.71l-1.47.9a3.13,3.13,0,0,0,.2.66A3.4,3.4,0,0,0,197.11,115.3Z" fill="#718096"/><path d="M199,151.1a1,1,0,0,1-.87.51,1,1,0,0,1-.49-.13l-2.43-1.36a3.53,3.53,0,0,0,.16,2.19,3.56,3.56,0,1,0,1.94-4.65,3.77,3.77,0,0,0-1.1.73l2.41,1.34A1,1,0,0,1,199,151.1Z" fill="#718096"/><path d="M197.68,151.48a1,1,0,0,0,.49.13,1,1,0,0,0,.49-1.88l-2.41-1.34a3.65,3.65,0,0,0-1,1.73Z" fill="#718096"/><path d="M165.24,170.9h0a1,1,0,0,1-1-1v-2.58l-.35.1a3.56,3.56,0,1,0,4.64,2,3.51,3.51,0,0,0-2.29-2.05v2.58A1,1,0,0,1,165.24,170.9Z" fill="#718096"/><path d="M164.24,167.32v2.58a1,1,0,0,0,1,1h0a1,1,0,0,0,1-1v-2.58A3.49,3.49,0,0,0,164.24,167.32Z" fill="#718096"/><path d="M133.57,116.63a3.51,3.51,0,0,0,1-.66l-2.78-1.62a1,1,0,0,1-.36-1.37,1,1,0,0,1,1.37-.36l2.82,1.65a3.55,3.55,0,1,0-2.07,2.36Z" fill="#718096"/><path d="M131.45,113a1,1,0,0,0,.36,1.37l2.78,1.62a3.57,3.57,0,0,0,1-1.7l-2.82-1.65A1,1,0,0,0,131.45,113Z" fill="#718096"/><path d="M148.2,295.18l.37.22V283.59a7.63,7.63,0,0,0-3.86-6.63l-23.77-13.44V236a7.36,7.36,0,0,0-.33-2.14,1,1,0,0,1-.82-.44,1,1,0,0,1,.11-1.23,7.64,7.64,0,0,0-2.61-2.69L94,215.28l.28-17.46a4.05,4.05,0,0,1,2.06-3.44l13-7.38a6,6,0,0,0,3.07-5.23v-.27l-2,.34a4,4,0,0,1-2,3.43L107,186a6,6,0,0,1-3.16,4l-.69.35a1.06,1.06,0,0,1-.45.11,1,1,0,0,1-.81-1.58l-6.51,3.71a6.08,6.08,0,0,0-3.07,5.15l-.29,18a1,1,0,0,0,.48.86l23.77,14.51a5.67,5.67,0,0,1,2.69,4.79V264.1a1,1,0,0,0,.5.88l24.28,13.72a5.63,5.63,0,0,1,2.85,4.89v12l.65-.36A1,1,0,0,1,148.2,295.18Z" fill="#718096"/><path d="M147.57,296.73a1,1,0,0,0,1-1v-.33l-.37-.22a1,1,0,0,0-1,0l-.65.36v.19A1,1,0,0,0,147.57,296.73Z" fill="#718096"/><path d="M112.38,174v-9.51l-1.2-.69v-.92a1,1,0,0,0-.8,1v8.71l1.54.87A1,1,0,0,1,112.38,174Z" fill="#718096"/><path d="M112.39,164.47v-.65a1,1,0,0,0-1-1h0a1.42,1.42,0,0,0-.2,0v.92Z" fill="#718096"/><path d="M112.38,174.49a1,1,0,0,1-.09.27,1,1,0,0,1-.87.51,1.09,1.09,0,0,1-.49-.13l-.55-.32v6.94s0,.05,0,.08l2-.34Z" fill="#718096"/><path d="M107.14,184.81a5.82,5.82,0,0,0-.41-2.36l-2,.34a3.87,3.87,0,0,1,.46,2,4,4,0,0,1-2.22,3.5l-.7.35a1.07,1.07,0,0,0-.35.32L107,186A6,6,0,0,0,107.14,184.81Z" fill="#718096"/><path d="M83.27,168.16l.52-.29L75.22,163a1,1,0,1,0-1,1.74l8.85,5a1,1,0,0,1-.2-.25A1,1,0,0,1,83.27,168.16Z" fill="#718096"/><path d="M104.09,179.42,85.82,169l-1.59.88a1,1,0,0,1-.48.12,1.26,1.26,0,0,1-.28,0l19.63,11.17a4.05,4.05,0,0,1,1.58,1.63l2-.34A6,6,0,0,0,104.09,179.42Z" fill="#718096"/><path d="M101.79,190a1,1,0,0,0,.89.55,1.06,1.06,0,0,0,.45-.11l.69-.35a6,6,0,0,0,3.16-4l-5.11,2.91A1,1,0,0,0,101.79,190Z" fill="#718096"/><path d="M102.67,168.16a1,1,0,1,0-1,1.74l8.69,4.92v-2.29Z" fill="#718096"/><path d="M112.38,174v.51A1,1,0,0,0,112.38,174Z" fill="#718096"/><path d="M111.42,175.27a1,1,0,0,0,.87-.51,1,1,0,0,0,.09-.27V174a1,1,0,0,0-.46-.58l-1.54-.87v2.29l.55.32A1.09,1.09,0,0,0,111.42,175.27Z" fill="#718096"/><path d="M93.64,164.7a1,1,0,1,0-1-1.75l-8.88,4.92,2,1.16Z" fill="#718096"/><path d="M84.23,169.91l1.59-.88-2-1.16-.52.29a1,1,0,0,0-.39,1.36,1,1,0,0,0,.2.25,1.07,1.07,0,0,0,.39.22,1.26,1.26,0,0,0,.28,0A1,1,0,0,0,84.23,169.91Z" fill="#718096"/><path d="M149.94,224.71a3.64,3.64,0,0,1-3.48,0l-7.2-3.85a1,1,0,0,0-.94,1.77l7.2,3.85a5.69,5.69,0,0,0,2.64.65,5.54,5.54,0,0,0,2.77-.73,5.45,5.45,0,0,0,.12-9.45l-1.87-1.12,0-2.19a5.45,5.45,0,0,0-2.77-4.66,5.57,5.57,0,0,0-5.53,0l-1.05.59v-.85a5.43,5.43,0,0,0-2.74-4.74,5.56,5.56,0,0,0-5.59,0L129.61,205l-1.67-1a5.52,5.52,0,0,0-5.66,0,5.4,5.4,0,0,0-2.71,4.82v.69l-5.54-3a5.67,5.67,0,0,0-5.53.07,5.47,5.47,0,0,0,0,9.52l1.81,1v2a5.44,5.44,0,0,0,2.71,4.72,5.55,5.55,0,0,0,5.56.08l2.38-1.31a1,1,0,1,0-1-1.75l-2.38,1.31a3.58,3.58,0,0,1-3.57-.05,3.47,3.47,0,0,1-1.73-3v-2.59a1,1,0,0,0-.5-.87l-2.32-1.32a3.46,3.46,0,0,1,.06-6.07,3.61,3.61,0,0,1,3.52,0l7.06,3.88a1,1,0,0,0,1,0,1,1,0,0,0,.49-.88l-.05-2.42a3.43,3.43,0,0,1,1.73-3.06,3.55,3.55,0,0,1,3.64,0L129.1,207a1,1,0,0,0,1,0l2.35-1.33a3.57,3.57,0,0,1,3.6,0,3.46,3.46,0,0,1,1.74,3v2.56a1,1,0,0,0,.5.86,1,1,0,0,0,1,0l2.54-1.42a3.56,3.56,0,0,1,3.56,0,3.45,3.45,0,0,1,1.76,3l.05,2.75a1,1,0,0,0,.48.84l2.35,1.4a3.47,3.47,0,0,1-.08,6Z" fill="#718096"/><path d="M120.62,233.84a1,1,0,0,0,.56-.18l8.86-6a1,1,0,0,0,.44-.81l.16-10.26a1,1,0,0,0-1-1h0a1,1,0,0,0-1,1l-.15,9.74L120.06,232a.61.61,0,0,0-.16.16,7.49,7.49,0,0,1,.71,1.67Z" fill="#718096"/><path d="M119.79,233.4a1,1,0,0,0,.82.44,7.49,7.49,0,0,0-.71-1.67A1,1,0,0,0,119.79,233.4Z" fill="#718096"/><path d="M68.78,205.36,85.43,196a1,1,0,0,0-1-1.74l-17.74,10a1.27,1.27,0,0,1,.36.12Z" fill="#718096"/><path d="M29.51,205.42s0,.08,0,.12,0-.12,0-.18S29.51,205.4,29.51,205.42Z" fill="#718096"/><path d="M34.26,206.4l13.53-.05a1,1,0,0,1,1-1.7l3,1.69,14.56-.06-.34-.2a1,1,0,0,1-.36-1.37,1,1,0,0,1,.54-.43l-35.74.14-.12,0a.9.9,0,0,1,.62.11Z" fill="#718096"/><path d="M66.71,204.23a1.07,1.07,0,0,0-.47.05h.38Z" fill="#718096"/><path d="M66.89,206.28H66.4l13,7.62a8,8,0,0,1,3.94,6.94l-.07,5a1,1,0,0,0,.51.88l13.72,7.73a7.93,7.93,0,0,1,4.07,6.89v26.55a1,1,0,0,0,.5.86l22.5,12.82a8,8,0,0,1,4,6.87v7.1l0,0a.94.94,0,0,1,.52-.11,1,1,0,0,1,1.25-.25l.19.1v-6.82a9.94,9.94,0,0,0-5-8.6l-22-12.54v-26a10,10,0,0,0-5.09-8.64l-13.2-7.43.06-4.4a9.94,9.94,0,0,0-4.93-8.69l-11.67-6.81-1.4.79A1.05,1.05,0,0,1,66.89,206.28Z" fill="#718096"/><path d="M129.08,295.53a.69.69,0,0,1,.11-.13.94.94,0,0,0-.52.11l0,0v.2a1,1,0,0,0,.5.84A1,1,0,0,1,129.08,295.53Z" fill="#718096"/><path d="M129.19,295.4a1,1,0,0,1,.84.49,1,1,0,0,1,.1.68,1,1,0,0,0,.5-.84v-.48l-.19-.1A1,1,0,0,0,129.19,295.4Z" fill="#718096"/><path d="M130,295.89a1,1,0,0,0-.84-.49.69.69,0,0,0-.11.13,1,1,0,0,0,0,1,.86.86,0,0,0,1,0A1,1,0,0,0,130,295.89Z" fill="#718096"/><path d="M65.7,204.71a1,1,0,0,0,.36,1.37l.34.2h.49a1.05,1.05,0,0,0,.49-.13l1.4-.79-1.71-1a1.27,1.27,0,0,0-.36-.12l-.09.05h-.38A1,1,0,0,0,65.7,204.71Z" fill="#718096"/><path d="M94.21,295.47l.61.35s0-.06,0-.09l.08-6.75a10,10,0,0,0-5-8.57l-22.3-12.9v-26a10,10,0,0,0-5-8.57l-13.1-7.59v-4.47a9.94,9.94,0,0,0-5-8.61L34.26,206.4l-3.75,0h0a.93.93,0,0,1-.59-.22.34.34,0,0,0,.09.08L43.55,214a8,8,0,0,1,4,6.87v5a1,1,0,0,0,.49.87l13.6,7.88a8,8,0,0,1,4,6.84v26.6a1,1,0,0,0,.5.87l22.8,13.18a7.94,7.94,0,0,1,4,6.83l-.08,5.34v1.38l.41-.22A1,1,0,0,1,94.21,295.47Z" fill="#718096"/><path d="M29.64,204.92s0,0,0,.06a.56.56,0,0,1,.1-.15S29.66,204.88,29.64,204.92Z" fill="#718096"/><path d="M93.83,296.73a1,1,0,0,0,1-.91l-.61-.35a1,1,0,0,0-1,0l-.41.22v0A1,1,0,0,0,93.83,296.73Z" fill="#718096"/><path d="M30.51,206.42l3.75,0L31,204.55a.9.9,0,0,0-.62-.11l-.2,0a.7.7,0,0,0-.17.09.78.78,0,0,0-.15.1,1.07,1.07,0,0,0-.14.16.56.56,0,0,0-.1.15,1.27,1.27,0,0,0-.06.18.71.71,0,0,0,0,.2c0,.06,0,.12,0,.18a1.18,1.18,0,0,0,0,.2.91.91,0,0,0,.09.17.86.86,0,0,0,.1.16l.16.13a.93.93,0,0,0,.59.22Z" fill="#718096"/><path d="M112.82,288.74a10,10,0,0,0-5-8.6l-22-12.63V241.34a9.94,9.94,0,0,0-5.14-8.67l-13-7.2V221a9.93,9.93,0,0,0-5.11-8.65l-10.69-6H47.79l.05,0L61.56,214A7.94,7.94,0,0,1,65.64,221v5.11a1,1,0,0,0,.52.87l13.51,7.49a7.94,7.94,0,0,1,4.11,6.92v26.75a1,1,0,0,0,.5.87l22.53,12.92a7.92,7.92,0,0,1,4,6.86v6.86l.09-.05a1,1,0,0,1,1,0l.87.48a.94.94,0,0,0,.06-.29Z" fill="#718096"/><path d="M110.91,295.55l-.09.05v.13a1,1,0,0,0,1,1,1,1,0,0,0,.94-.71l-.87-.48A1,1,0,0,0,110.91,295.55Z" fill="#718096"/><path d="M48.82,204.65a1,1,0,0,0-1,1.7h4.05Z" fill="#718096"/><path d="M129.76,174.87v1.71a5.12,5.12,0,0,1-7.69,4.39l-1.49-.84-1,.16a1,1,0,0,0,.48.71l1.49.84a6.13,6.13,0,0,0,6.18,0,6,6,0,0,0,3-5.24v-1.13l.32-.18-1-.58Z" fill="#718096"/><path d="M59.1,152.55l4.08-2.29a5.16,5.16,0,0,1,5.17.07l6.4,3.79,1.67-.93a5.12,5.12,0,0,1,7.65,4.4v1.64l6.41-3.65a5.2,5.2,0,0,1,5.15,0l6.53,3.76v-1.44a5.13,5.13,0,0,1,7.84-4.29l1.19.73v-1.17l-.66-.41a6.11,6.11,0,0,0-6.26-.13,6,6,0,0,0-3.1,5l-5-2.9a6.2,6.2,0,0,0-6.14,0l-4.92,2.8a6,6,0,0,0-3-5.13,6.12,6.12,0,0,0-6.14-.06l-1.17.65-5.9-3.5a6.18,6.18,0,0,0-6.17-.08l-4.08,2.29a6.14,6.14,0,0,0-.85.59,2.85,2.85,0,0,1,1.27.33Z" fill="#718096"/><path d="M111.37,154.46l1.34-.81a5.12,5.12,0,0,1,7.81,4.3v1.37l10.6,6a5,5,0,0,1,0,8.76l-1.07.61,1,.58.56-.32a6,6,0,0,0,0-10.5l-10.09-5.7V158a6,6,0,0,0-3.1-5.26,6.1,6.1,0,0,0-6.23.1l-.82.5-.18-.11v1.17Z" fill="#718096"/><path d="M91.52,185.58a5.12,5.12,0,0,1-7.64-4.41v-1.64l-10.27,5.93a5.13,5.13,0,0,1-7.91-4.31V180.1l-1.57.9a5.13,5.13,0,0,1-7.69-4.38V175L55,174.18a5,5,0,0,1-.07-8.8l1.7-1L56.53,158a3,3,0,0,1-1-.68l.13,6.49-1.19.67a6,6,0,0,0,.09,10.55l.9.49v1.07a6,6,0,0,0,3,5.22,6.11,6.11,0,0,0,6.16,0l.1-.06a6,6,0,0,0,3.09,4.68,6.23,6.23,0,0,0,3,.78,6,6,0,0,0,3.27-1l8.77-5.06a6,6,0,0,0,3,5.12,6.12,6.12,0,0,0,6.14.07l1.48-.83a1,1,0,0,0,.49-1l-1,.16Z" fill="#718096"/><path d="M56.51,157A5,5,0,0,1,59,152.6a2.85,2.85,0,0,0-1.27-.33,6,6,0,0,0-2.25,4.79v.29a3,3,0,0,0,1,.68Z" fill="#718096"/><path d="M56.66,164.41l-1.7,1a5,5,0,0,0,.07,8.8l1.42.77v1.67A5.13,5.13,0,0,0,64.14,181l1.57-.9v1.05a5.13,5.13,0,0,0,7.91,4.31l10.27-5.93v1.64a5.12,5.12,0,0,0,7.64,4.41l1.48-.83,1-.16a1,1,0,0,0-.1-.33,1,1,0,0,0-1.36-.38L91,184.7a4.13,4.13,0,0,1-4.15,0,4,4,0,0,1-2-3.48v-1.64a1,1,0,0,0-.5-.87,1,1,0,0,0-1,0l-10.31,6a4.12,4.12,0,0,1-4.28.13,4,4,0,0,1-2.09-3.58v-1a1,1,0,0,0-1.49-.88l-1.58.9a4.15,4.15,0,0,1-4.17,0,4,4,0,0,1-2-3.49V175a1,1,0,0,0-.52-.87l-1.42-.78a4,4,0,0,1-.06-7.05l1.71-1a1,1,0,0,0,.5-.89l-.12-6.15a2.8,2.8,0,0,1-1-.21Z" fill="#718096"/><path d="M122.07,181a5.12,5.12,0,0,0,7.69-4.39v-1.71l.32-.19-1-.56a1,1,0,0,0-.35.75v1.71a4,4,0,0,1-2,3.5,4.16,4.16,0,0,1-4.18,0l-1.49-.85a1,1,0,0,0-1.37.37,1.09,1.09,0,0,0-.1.66l1-.16Z" fill="#718096"/><path d="M110,153.62a5.13,5.13,0,0,0-7.84,4.29v1.44l-6.53-3.76a5.2,5.2,0,0,0-5.15,0l-6.41,3.65v-1.64a5.12,5.12,0,0,0-7.65-4.4l-1.67.93-6.4-3.79a5.16,5.16,0,0,0-5.17-.07l-4.08,2.29-.07,0a3,3,0,0,1,.85.66l3.79-2.12a4.17,4.17,0,0,1,4.17.05l6.4,3.79a1,1,0,0,0,1,0l1.67-.93a4.15,4.15,0,0,1,4.16.05,4,4,0,0,1,2,3.48v1.64a1,1,0,0,0,1.49.87L91,156.45a4.18,4.18,0,0,1,4.15,0l6.54,3.76a1,1,0,0,0,1,0,1,1,0,0,0,.49-.87v-1.44a4,4,0,0,1,2.09-3.52,4.14,4.14,0,0,1,4.23.08l1.36.84a1.14,1.14,0,0,0,.35.13v-1.09Z" fill="#718096"/><path d="M111.88,155.31l1.34-.81a4.14,4.14,0,0,1,4.22-.07,4,4,0,0,1,2.08,3.52v1.37a1,1,0,0,0,.51.87l10.6,6a4,4,0,0,1,0,7l-1.39.8a.61.61,0,0,0-.16.12l1,.56,1.07-.61a5,5,0,0,0,0-8.76l-10.6-6V158a5.12,5.12,0,0,0-7.81-4.3l-1.34.81-.18-.11v1.09A1,1,0,0,0,111.88,155.31Z" fill="#718096"/><path d="M56.51,157l0,1a2.8,2.8,0,0,0,1,.21l0-1.22a4.05,4.05,0,0,1,2.08-3.6l.29-.16a3,3,0,0,0-.85-.66A5,5,0,0,0,56.51,157Z" fill="#718096"/><path d="M311.46,173.84a1,1,0,0,0-1,1A144.84,144.84,0,0,1,305,214.21a142.54,142.54,0,0,1-5.94,16.92,1,1,0,0,0,.53,1.31.91.91,0,0,0,.39.08,1,1,0,0,0,.92-.61,145.31,145.31,0,0,0,6-17.15,146.91,146.91,0,0,0,5.5-39.92A1,1,0,0,0,311.46,173.84Z" fill="#718096"/><path d="M35,239.86a1,1,0,0,0,.44-.1,1,1,0,0,0,.45-1.34,143.44,143.44,0,0,1-14.31-53.08c-.25-3.48-.38-7-.38-10.5A143.88,143.88,0,0,1,61.91,74.24a1,1,0,0,0-1.44-1.39,145.87,145.87,0,0,0-41.28,102c0,3.53.13,7.12.39,10.64A145.33,145.33,0,0,0,34.09,239.3,1,1,0,0,0,35,239.86Z" fill="#718096"/><path d="M285.66,255.84a145.22,145.22,0,0,1-27.79,30.56c-2,1.67-4.12,3.32-6.24,4.88a1,1,0,1,0,1.18,1.61c2.15-1.59,4.28-3.25,6.33-4.94a147.71,147.71,0,0,0,28.18-31,1,1,0,0,0-1.66-1.12Z" fill="#718096"/><path d="M291.59,174.2a126.15,126.15,0,0,0-40.54-92.48,1,1,0,0,0-1.36,1.47,124.11,124.11,0,0,1,39.9,91,122.73,122.73,0,0,1-23.2,72.27h2.47A124.77,124.77,0,0,0,291.59,174.2Z" fill="#718096"/><path d="M239.69,273.51a1,1,0,0,0-.2,1.4,1,1,0,0,0,.8.4,1,1,0,0,0,.6-.2,127.1,127.1,0,0,0,26.53-26.64h-2.5A125.29,125.29,0,0,1,239.69,273.51Z" fill="#718096"/><path d="M266.39,246.47c-.48.67-1,1.34-1.47,2h2.5c.48-.66,1-1.33,1.44-2Z" fill="#718096"/><path d="M41.7,194.5a1,1,0,0,0,1,.84h.16a1,1,0,0,0,.83-1.15,125.62,125.62,0,0,1-1.6-20,123.61,123.61,0,0,1,75.58-114,1,1,0,1,0-.78-1.84A126,126,0,0,0,41.7,194.5Z" fill="#718096"/><path d="M269.78,167.48a1,1,0,0,0-2,0v4.45h2Z" fill="#cbd5e0"/><path d="M267.78,178.38a1,1,0,0,0,2,0v-4.45h-2Z" fill="#cbd5e0"/><path d="M264.62,171.93a1,1,0,0,0,0,2h3.16v-2Z" fill="#cbd5e0"/><path d="M274.55,172.93a1,1,0,0,0-1-1h-3.77v2h3.77A1,1,0,0,0,274.55,172.93Z" fill="#cbd5e0"/><rect x="267.78" y="171.93" width="2" height="2" fill="#cbd5e0"/><path d="M272,145.14c-6.64,0-8-7.85-8-8.18a1,1,0,0,0-1-.84h0a1,1,0,0,0-1,.81c-.06.34-1.63,8.21-8,8.21a1,1,0,1,0,0,2c6.42,0,8,7.88,8,8.22a1,1,0,0,0,1,.81h0a1,1,0,0,0,1-.84c0-.08,1.38-8.19,8-8.19a1,1,0,0,0,0-2Zm-9.06,6.66a11.73,11.73,0,0,0-4.9-5.66,11.71,11.71,0,0,0,4.9-5.65,11.2,11.2,0,0,0,4.87,5.65A11.22,11.22,0,0,0,262.91,151.8Z" fill="#cbd5e0"/><path d="M219.81,62.15c4.22,0,5.27,5.26,5.31,5.48a1,1,0,0,0,1,.81h0a1,1,0,0,0,1-.83c0-.23.95-5.46,5.31-5.46a1,1,0,0,0,0-2c-4.36,0-5.27-5.23-5.31-5.45a1,1,0,0,0-2,0s-1.07,5.48-5.31,5.48a1,1,0,0,0,0,2Zm6.27-4.24a8.08,8.08,0,0,0,2.79,3.24,8.08,8.08,0,0,0-2.79,3.24,8.48,8.48,0,0,0-2.82-3.24A8.48,8.48,0,0,0,226.08,57.91Z" fill="#cbd5e0"/><path d="M249,215.74a4.91,4.91,0,1,1-6-4.78v-1a5.89,5.89,0,1,0,2,0v1A4.89,4.89,0,0,1,249,215.74Z" fill="#718096"/><path d="M243,209.94v1a4.55,4.55,0,0,1,1-.12,4.34,4.34,0,0,1,1,.1v-1a5.62,5.62,0,0,0-2,0Z" fill="#718096"/><path d="M239.18,215.74a4.91,4.91,0,1,0,5.86-4.8v.55a1,1,0,0,1-.12.45,3.91,3.91,0,1,1-1.74,0,1,1,0,0,1-.14-.47V211A4.89,4.89,0,0,0,239.18,215.74Z" fill="#718096"/><path d="M243.18,212a3.5,3.5,0,0,1,1.74,0,1,1,0,0,0,.12-.45v-.55a4.34,4.34,0,0,0-1-.1,4.55,4.55,0,0,0-1,.12v.53A1,1,0,0,0,243.18,212Z" fill="#718096"/><circle cx="222.76" cy="195.77" r="3" fill="#cbd5e0"/><circle cx="207.69" cy="217.95" r="1.48" fill="#cbd5e0"/><circle cx="270.48" cy="202.27" r="1.48" fill="#cbd5e0"/><circle cx="205.13" cy="54.07" r="1.48" fill="#cbd5e0"/><path d="M157.33,137.14l7.84,4.53,7.84-4.53v-8.55a1,1,0,0,1-.07-.54l-7.77-4.49L157.56,128a1.55,1.55,0,0,1-.08.23,1.49,1.49,0,0,1-.15.2V137a.33.33,0,0,0,0,.1Z" fill="#cbd5e0"/><path d="M157.56,128l-.23.14v.29a1.49,1.49,0,0,0,.15-.2A1.55,1.55,0,0,0,157.56,128Z" fill="#cbd5e0"/><path d="M173,128.59v-.5l-.07,0A1,1,0,0,0,173,128.59Z" fill="#cbd5e0"/><path d="M157.28,127l7.1-4.1a1,1,0,0,1-.14-.49v-.58l-7.91,4.56.79.46A.77.77,0,0,1,157.28,127Z" fill="#718096"/><path d="M156.33,136.18v-7.55a1.45,1.45,0,0,1-.22-.09l-.78-.46v8.5l.52-.29A1,1,0,0,1,156.33,136.18Z" fill="#718096"/><path d="M173.61,138l-7.48,4.32a1,1,0,0,1,.14.47v.6l8.33-4.81-.89-.5A.39.39,0,0,1,173.61,138Z" fill="#718096"/><path d="M164.35,142.35,156.84,138h0l-1,.56,8.44,4.87v-.72A1,1,0,0,1,164.35,142.35Z" fill="#718096"/><path d="M166.05,122.92l7.53,4.35,1-.6-8.32-4.8v.5A1,1,0,0,1,166.05,122.92Z" fill="#718096"/><path d="M174,129.22v7a1,1,0,0,1,.68.1l.32.18v-7.73l-.57.35A1,1,0,0,1,174,129.22Z" fill="#718096"/><path d="M155.33,128.08l.78.46a1.45,1.45,0,0,0,.22.09v-1.12l.95-.55a.77.77,0,0,0-.16-.15l-.79-.46-1,.58Z" fill="#718096"/><path d="M174,127.51v1.71a1,1,0,0,0,.43-.13l.57-.35v-1.81l-.45-.26-1,.6Z" fill="#718096"/><path d="M174,136.19v1.53l-.4.23a.39.39,0,0,0,.1.08l.89.5.41-.23v-1.83l-.32-.18A1,1,0,0,0,174,136.19Z" fill="#718096"/><path d="M156.84,138l-.51-.3v-1.54a1,1,0,0,0-.48.11l-.52.29v1.72l.5.29,1-.56Z" fill="#718096"/><path d="M164.38,122.86l.79-.45.88.51a1,1,0,0,0,.19-.55v-.5l-1.07-.62-.93.54v.58A1,1,0,0,0,164.38,122.86Z" fill="#718096"/><path d="M166.13,142.27l-1,.55-.82-.47a1,1,0,0,0-.08.39v.72l.9.52,1.1-.64v-.6A1,1,0,0,0,166.13,142.27Z" fill="#718096"/><path d="M157.56,128l7.61-4.39,7.77,4.49a1,1,0,0,1,.46-.67l.18-.11-7.53-4.35a1,1,0,0,1-.81.45,1,1,0,0,1-.86-.51l-7.1,4.1A1,1,0,0,1,157.56,128Z" fill="#718096"/><path d="M157.21,136.67a1.27,1.27,0,0,1,.12.36v-8.65a1,1,0,0,1-.71.29.92.92,0,0,1-.29,0v7.55A1,1,0,0,1,157.21,136.67Z" fill="#718096"/><path d="M173.06,128.75a.75.75,0,0,1-.05-.16v8.55l-7.84,4.53-7.84-4.53h0a1,1,0,0,1-.49.89l7.51,4.33a1,1,0,0,1,.92-.61h0a1,1,0,0,1,.86.53l7.48-4.32a1,1,0,0,1,.4-1.76v-7h-.09A1,1,0,0,1,173.06,128.75Z" fill="#718096"/><path d="M157.33,128.38v-.29l.23-.14a1,1,0,0,0-.28-1l-.95.55v1.12a.92.92,0,0,0,.29,0A1,1,0,0,0,157.33,128.38Z" fill="#718096"/><path d="M172.94,128.05l.07,0v.5a.75.75,0,0,0,.05.16,1,1,0,0,0,.86.48H174v-1.71l-.43-.24-.18.11A1,1,0,0,0,172.94,128.05Z" fill="#718096"/><path d="M173.33,136.67a1,1,0,0,0,.28,1.28l.4-.23v-1.53A1,1,0,0,0,173.33,136.67Z" fill="#718096"/><path d="M157.33,137.13a.33.33,0,0,1,0-.1,1.27,1.27,0,0,0-.12-.36,1,1,0,0,0-.88-.49v1.54l.51.3A1,1,0,0,0,157.33,137.13Z" fill="#718096"/><path d="M165.24,123.37a1,1,0,0,0,.81-.45l-.88-.51-.79.45A1,1,0,0,0,165.24,123.37Z" fill="#718096"/><path d="M165.27,141.74h0a1,1,0,0,0-.92.61l.82.47,1-.55A1,1,0,0,0,165.27,141.74Z" fill="#718096"/></g></svg>